<svg width="597" height="556" viewBox="0 0 597 556" fill="none" xmlns="http://www.w3.org/2000/svg">
<g clip-path="url(#clip0_47_4)">
<path d="M427.989 556C521.331 556 597 549.285 597 541.003C597 532.72 521.331 526.005 427.989 526.005C334.647 526.005 258.978 532.72 258.978 541.003C258.978 549.285 334.647 556 427.989 556Z" fill="white"/>
<path opacity="0.1" d="M427.989 556C521.331 556 597 549.285 597 541.003C597 532.72 521.331 526.005 427.989 526.005C334.647 526.005 258.978 532.72 258.978 541.003C258.978 549.285 334.647 556 427.989 556Z" fill="#292A2E"/>
<path d="M147.423 317.979H93.5503V333.053H147.423V317.979Z" fill="#F4F4F4"/>
<path opacity="0.05" d="M107.844 317.979H100.785V333.053H107.844V317.979Z" fill="#292A2E"/>
<path d="M140.539 321.255H111.188V330.188H140.539V321.255Z" fill="white"/>
<path d="M190.394 319.946L140.337 298.921L134.063 312.735L184.12 333.76L190.394 319.946Z" fill="#F4F4F4"/>
<path opacity="0.05" d="M190.394 319.946L140.337 298.921L134.063 312.735L184.12 333.76L190.394 319.946Z" fill="#292A2E"/>
<path d="M183.672 317.122L177.113 314.367L170.839 328.181L177.398 330.936L183.672 317.122Z" fill="white"/>
<path d="M172.642 316.065L145.37 304.61L141.652 312.796L168.924 324.251L172.642 316.065Z" fill="white"/>
<path opacity="0.05" d="M190.488 508.939H176.95V517.633H190.488V508.939Z" fill="#292A2E"/>
<path opacity="0.05" d="M52.0729 508.939H38.5345V517.633H52.0729V508.939Z" fill="#292A2E"/>
<path d="M202.898 333.76H26.125V508.645H202.898V333.76Z" fill="#F4F4F4"/>
<path opacity="0.03" d="M202.898 333.76H26.125V508.645H202.898V333.76Z" fill="#292A2E"/>
<path d="M235.657 333.76H58.8837V508.645H235.657V333.76Z" fill="#F4F4F4"/>
<path opacity="0.05" d="M223.247 508.939H209.708V517.633H223.247V508.939Z" fill="#292A2E"/>
<path opacity="0.05" d="M84.8321 508.939H71.2938V517.633H84.8321V508.939Z" fill="#292A2E"/>
<path opacity="0.7" d="M229.022 341.951H65.52V375.55H229.022V341.951Z" fill="white"/>
<path opacity="0.7" d="M229.022 383.773H65.52V417.372H229.022V383.773Z" fill="white"/>
<path opacity="0.7" d="M229.022 425.596H65.52V459.195H229.022V425.596Z" fill="white"/>
<path opacity="0.05" d="M147.271 363.452C149.971 363.452 152.16 361.347 152.16 358.751C152.16 356.154 149.971 354.049 147.271 354.049C144.571 354.049 142.382 356.154 142.382 358.751C142.382 361.347 144.571 363.452 147.271 363.452Z" fill="#292A2E"/>
<path opacity="0.05" d="M147.271 405.274C149.971 405.274 152.16 403.169 152.16 400.573C152.16 397.977 149.971 395.872 147.271 395.872C144.571 395.872 142.382 397.977 142.382 400.573C142.382 403.169 144.571 405.274 147.271 405.274Z" fill="#292A2E"/>
<path opacity="0.05" d="M147.271 447.097C149.971 447.097 152.16 444.992 152.16 442.396C152.16 439.8 149.971 437.695 147.271 437.695C144.571 437.695 142.382 439.8 142.382 442.396C142.382 444.992 144.571 447.097 147.271 447.097Z" fill="#292A2E"/>
<path opacity="0.7" d="M229.022 468.361H65.52V501.96H229.022V468.361Z" fill="white"/>
<path opacity="0.05" d="M147.271 489.862C149.971 489.862 152.16 487.757 152.16 485.161C152.16 482.564 149.971 480.459 147.271 480.459C144.571 480.459 142.382 482.564 142.382 485.161C142.382 487.757 144.571 489.862 147.271 489.862Z" fill="#292A2E"/>
<path d="M88.8763 160.18H193.404L193.404 29.3409H88.8763L88.8763 160.18Z" fill="#F4F4F4"/>
<path d="M88.877 29.3409H85.4861V160.18H88.877V29.3409Z" fill="#F4F4F4"/>
<path opacity="0.05" d="M88.877 29.3409H85.4861V160.18H88.877V29.3409Z" fill="#292A2E"/>
<path opacity="0.05" d="M107.918 136.346H174.363V53.1744L107.918 53.1744L107.918 136.346Z" fill="#292A2E"/>
<path opacity="0.03" d="M107.918 136.346H111.381L111.381 53.1744H107.918L107.918 136.346Z" fill="#292A2E"/>
<path d="M3.39028 275.319H88.8763L88.8763 192.355H3.39028L3.39028 275.319Z" fill="#F4F4F4"/>
<path opacity="0.05" d="M18.9628 260.206H73.3038V207.468H18.9628L18.9628 260.206Z" fill="#292A2E"/>
<path d="M3.39095 192.355H0V275.319H3.39095V192.355Z" fill="#F4F4F4"/>
<path opacity="0.05" d="M3.39095 192.355H0V275.319H3.39095V192.355Z" fill="#292A2E"/>
<path opacity="0.03" d="M18.9628 260.206H22.4255L22.4255 207.468H18.9628L18.9628 260.206Z" fill="#292A2E"/>
<path d="M524.673 29.0294H306.541V238.799H524.673V29.0294Z" fill="#F4F4F4"/>
<path d="M306.541 29.0294H304.041V238.799H306.541V29.0294Z" fill="#F4F4F4"/>
<path opacity="0.05" d="M306.541 29.0294H304.041V238.799H306.541V29.0294Z" fill="#292A2E"/>
<path opacity="0.05" d="M359.385 173.578V118.695H406.134V150.581H478.547V207.038H509.325V238.799H478.547H472.619H317.034V173.578H359.385Z" fill="#292A2E"/>
<path opacity="0.34" d="M400.132 124.654H366.089V130.613H400.132V124.654Z" fill="#FFFFFA"/>
<path opacity="0.34" d="M400.132 137.002H366.089V142.961H400.132V137.002Z" fill="#FFFFFA"/>
<path opacity="0.34" d="M400.132 149.351H366.089V155.31H400.132V149.351Z" fill="#FFFFFA"/>
<path opacity="0.34" d="M329.346 179.362H323.071V185.321H329.346V179.362Z" fill="#FFFFFA"/>
<path opacity="0.34" d="M329.346 191.71H323.071V197.669H329.346V191.71Z" fill="#FFFFFA"/>
<path opacity="0.34" d="M329.346 204.058H323.071V210.017H329.346V204.058Z" fill="#FFFFFA"/>
<path opacity="0.34" d="M340.954 179.362H334.679V185.321H340.954V179.362Z" fill="#FFFFFA"/>
<path opacity="0.34" d="M340.954 191.71H334.679V197.669H340.954V191.71Z" fill="#FFFFFA"/>
<path opacity="0.34" d="M340.954 204.058H334.679V210.017H340.954V204.058Z" fill="#FFFFFA"/>
<path opacity="0.34" d="M352.248 179.362H345.973V185.321H352.248V179.362Z" fill="#FFFFFA"/>
<path opacity="0.34" d="M352.248 191.71H345.973V197.669H352.248V191.71Z" fill="#FFFFFA"/>
<path opacity="0.34" d="M352.248 204.058H345.973V210.017H352.248V204.058Z" fill="#FFFFFA"/>
<path d="M306.541 132.737H350.432V29.0287H354.063V132.737H472.619V29.0287H476.248V132.737H524.673V136.228H476.248V238.799H472.619V136.228H354.063V238.799H350.432V136.228H306.541V132.737Z" fill="white"/>
<path d="M533.362 238.545H297.851V245.521H533.362V238.545Z" fill="#F4F4F4"/>
<path opacity="0.1" d="M533.362 238.545H297.851V245.521H533.362V238.545Z" fill="#292A2E"/>
<path opacity="0.1" d="M297.851 238.545H294.451V245.521H297.851V238.545Z" fill="#292A2E"/>
<path opacity="0.1" d="M297.851 238.545H294.451V245.521H297.851V238.545Z" fill="#292A2E"/>
<path d="M487.268 274.482C453.873 274.482 426.801 283.243 426.801 294.051V317.348H547.735V294.051C547.735 283.243 520.663 274.482 487.268 274.482Z" fill="#367CFF"/>
<path opacity="0.49" d="M487.268 274.482C453.873 274.482 426.801 283.243 426.801 294.051V317.348H547.735V294.051C547.735 283.243 520.663 274.482 487.268 274.482Z" fill="white"/>
<path opacity="0.49" d="M531.263 294.053V317.346H426.8V294.053C426.8 284.147 449.536 275.962 479.031 274.668C508.529 275.962 531.263 284.147 531.263 294.053Z" fill="white"/>
<path d="M547.735 543.715H549.764L547.735 315.281L545.723 317.233L547.157 476.8L475.52 477.97L474.075 317.216L472.063 317.233L473.509 478.003L430.264 478.71L428.812 317.216L426.8 315.298L428.829 543.715L430.824 543.698L430.281 480.646L473.525 479.939L474.075 543.715L476.087 543.698L475.537 479.906L547.175 478.735L547.735 543.715Z" fill="#292A2E"/>
<path d="M365.345 509.515C365.345 509.515 361.749 527.44 344.296 528.439C326.843 529.438 330.628 542.809 330.628 542.809H397.323V510.765L365.345 509.515Z" fill="#367CFF"/>
<path d="M403.398 455.598C403.398 455.598 408.399 473.209 393.197 481.515C377.996 489.82 387.529 500.211 387.529 500.211L447.374 471.897L432.666 443.143L403.398 455.598Z" fill="#367CFF"/>
<path d="M397.066 467.238L351.972 303.616C348.552 285.54 353.701 277.705 361.636 270.094C375.577 256.722 433.343 228.261 433.343 228.261L502.644 228.079C521.021 228.079 539.084 245.504 539.084 263.175C539.084 280.846 520.404 295.832 502.028 295.832L416.689 304.023L439.822 453.84L397.066 467.238Z" fill="#262626"/>
<path d="M439.822 453.839L430.714 394.858L384.577 421.923L397.066 467.238L439.822 453.839Z" fill="#0C0C0C"/>
<path d="M450.28 261.371C450.28 261.371 421.147 267.615 392.295 295.361C374.801 312.184 376.236 342.627 378.86 401.179L407.516 360.475L438.947 305.961L450.28 261.371Z" fill="#0C0C0C"/>
<path d="M551.148 228.061L504.084 227.847L504.067 228.443H489.815C489.815 228.443 454.117 260.031 425.378 279.937C404.473 294.415 391.72 308.219 390.617 323.263C387.927 359.937 357.586 516.345 357.586 516.345L403.248 522.994L443.319 336.074C443.319 336.074 505.973 308.295 520.466 298.63C534.113 289.528 543.753 286.009 548.269 276.075C556.068 258.918 551.148 228.061 551.148 228.061Z" fill="#262626"/>
<path d="M498.348 239.461L421.998 240.433L464.827 265.032L500.464 247.335C501.322 246.892 502.002 246.184 502.392 245.325C502.783 244.467 502.863 243.507 502.619 242.599C502.375 241.692 501.822 240.889 501.047 240.32C500.273 239.751 499.322 239.448 498.348 239.461Z" fill="#292A2E"/>
<path opacity="0.2" d="M498.348 239.461L421.998 240.433L464.827 265.032L500.464 247.335C501.322 246.892 502.002 246.184 502.392 245.325C502.783 244.467 502.863 243.507 502.619 242.599C502.375 241.692 501.822 240.889 501.047 240.32C500.273 239.751 499.322 239.448 498.348 239.461Z" fill="white"/>
<path d="M422.435 107.739L400.839 175.029L357.584 229.491L382.852 257.385L434.312 202.15C436.683 200.349 438.538 197.996 439.701 195.314L440.502 193.448L470.227 124.285L422.435 107.739Z" fill="#367CFF"/>
<path d="M455.703 36.3117C455.703 36.3117 447.001 29.991 444.845 15.4534C443.175 4.19682 453.973 11.4895 453.973 11.4895C453.973 11.4895 452.853 3.37255 459.003 4.17811C465.153 4.98368 468.594 13.5102 468.594 13.5102" fill="#0C0C0C"/>
<path d="M490.786 5.12817C490.786 5.12817 521.298 8.27368 510.268 48.0347L507.569 48.2088L502.088 48.5623" fill="#0C0C0C"/>
<path d="M460.813 89.559C460.947 89.5422 462.436 113.294 491.128 111.225C510.994 109.794 518.077 89.5255 518.532 89.5255C516.39 89.0875 513.743 88.4232 512.692 88.1956C510.399 87.6839 508.322 86.5131 506.739 84.8388C505.155 83.1645 504.139 81.0662 503.825 78.8229C503.244 75.4561 504.228 58.2303 503.926 54.8236L473.436 61.3687C473.863 68.564 476.844 85.2435 466.394 88.1956C464.654 88.6832 462.78 89.1346 460.813 89.559Z" fill="#E98862"/>
<path opacity="0.52" d="M473.009 81.3789C473.486 79.8984 473.794 78.3722 473.926 76.8274C474.261 73.3022 474.193 69.7525 473.725 66.2415C479.923 65.4383 485.763 62.9792 490.58 59.1436C491.147 61.1546 494.261 69.9417 493.397 71.8495C491.768 75.4613 484.11 81.3789 473.009 81.3789Z" fill="#0C0C0C"/>
<path d="M479.303 76.6777C491.332 75.6399 505.731 68.3305 505.939 52.6262L506.126 38.4562C506.334 22.7525 497.925 9.91703 482.55 9.7287C467.175 9.54101 455.514 22.1308 455.306 37.8351L455.223 44.1081C455.234 46.2625 455.397 48.4137 455.711 50.5468C456.5 56.1903 457.723 64.7703 461.706 70.5743C465.466 76.054 471.617 77.3401 479.303 76.6777Z" fill="#E98862"/>
<path opacity="0.52" d="M473.721 62.3233C471.238 62.4315 468.764 61.977 466.497 60.9966C466.405 60.9564 466.332 60.8829 466.295 60.7919C466.258 60.701 466.26 60.5997 466.3 60.5099C466.34 60.4201 466.415 60.3488 466.508 60.3114C466.602 60.274 466.707 60.2734 466.802 60.3097C471.685 62.3123 476.119 62.0195 479.624 59.4622C479.694 59.4085 479.768 59.3583 479.844 59.312C479.932 59.2721 480.032 59.2655 480.125 59.2936C480.218 59.3216 480.297 59.3823 480.345 59.4635C480.394 59.5447 480.409 59.6405 480.388 59.7319C480.366 59.8233 480.31 59.9036 480.23 59.9569C480.202 59.9737 480.156 60.0079 480.096 60.0543C478.253 61.4042 476.033 62.1942 473.721 62.3233Z" fill="#0C0C0C"/>
<path opacity="0.52" d="M473.834 65.8609C473.386 65.8875 472.936 65.8772 472.489 65.83C472.438 65.8248 472.389 65.8101 472.345 65.7867C472.3 65.7633 472.26 65.7316 472.228 65.6935C472.196 65.6554 472.173 65.6117 472.158 65.5647C472.144 65.5177 472.139 65.4685 472.144 65.4198C472.15 65.3711 472.165 65.3239 472.189 65.2808C472.214 65.2378 472.247 65.1998 472.286 65.1691C472.326 65.1383 472.371 65.1153 472.42 65.1014C472.469 65.0876 472.52 65.0831 472.571 65.0883C475.258 65.3624 476.541 64.1789 476.595 64.1279C476.668 64.0579 476.766 64.0184 476.869 64.0183C476.972 64.0182 477.071 64.0574 477.144 64.1273C477.216 64.1971 477.257 64.292 477.258 64.3909C477.258 64.4899 477.217 64.5848 477.144 64.6548C476.219 65.4125 475.05 65.8387 473.834 65.8609Z" fill="#0C0C0C"/>
<path d="M460.383 47.1278C461.429 47.1278 462.277 46.3124 462.277 45.3064C462.277 44.3005 461.429 43.485 460.383 43.485C459.337 43.485 458.489 44.3005 458.489 45.3064C458.489 46.3124 459.337 47.1278 460.383 47.1278Z" fill="#0C0C0C"/>
<path d="M478.887 46.0114C479.933 46.0114 480.781 45.196 480.781 44.19C480.781 43.1841 479.933 42.3687 478.887 42.3687C477.841 42.3687 476.993 43.1841 476.993 44.19C476.993 45.196 477.841 46.0114 478.887 46.0114Z" fill="#0C0C0C"/>
<path d="M504.921 57.4022C509.594 57.4596 513.445 52.6985 513.506 48.205C513.567 43.7115 509.81 41.1871 505.137 41.1303L502.69 44.1114L500.905 57.3532L504.921 57.4022Z" fill="#E98862"/>
<path d="M500.272 50.1785C500.272 50.1785 498.694 27.9575 491.687 26.585C487.021 25.671 475.704 32.0369 465.222 30.1142C460.637 29.2758 456.283 30.3645 455.841 32.4477C455.665 33.2726 452.809 21.4188 459.99 12.4253C465.707 5.26619 484.417 3.24099 492.929 5.58867C516.5 12.0912 506.099 42.1048 506.099 42.1048L505.048 49.7658L500.272 50.1785Z" fill="#0C0C0C"/>
<g opacity="0.52">
<path d="M470.896 57.0797C470.886 57.0803 470.876 57.0803 470.867 57.0797C469.361 57.0655 466.837 56.8791 466.847 55.7962C466.857 54.8984 469.513 45.2348 469.816 44.1358C469.842 44.0412 469.906 43.9605 469.994 43.9113C470.082 43.8621 470.187 43.8486 470.285 43.8736C470.384 43.8987 470.468 43.9603 470.519 44.0449C470.57 44.1295 470.584 44.2302 470.558 44.3248C469.378 48.6048 467.621 55.1938 467.614 55.8052C467.759 56.0632 469.315 56.3289 470.873 56.3444C470.972 56.3464 471.065 56.3847 471.135 56.4513C471.205 56.5179 471.246 56.6077 471.249 56.7023C471.252 56.7968 471.217 56.8888 471.151 56.9593C471.085 57.0298 470.994 57.0733 470.896 57.081V57.0797Z" fill="#0C0C0C"/>
</g>
<path d="M465.76 35.4307C464.177 35.0119 462.506 35.0119 460.923 35.4307C460.146 35.6318 459.405 35.944 458.724 36.3569C458.051 36.7612 457.433 37.2458 456.886 37.7991C456.786 37.8976 456.728 38.0297 456.726 38.168C456.724 38.3062 456.777 38.44 456.875 38.5413C456.973 38.6427 457.108 38.7039 457.251 38.7122C457.395 38.7205 457.536 38.6753 457.646 38.5859L457.68 38.5575C458.186 38.1065 458.749 37.7189 459.357 37.4037C459.952 37.0899 460.594 36.8646 461.259 36.7355C462.57 36.4713 463.929 36.5445 465.201 36.9477L465.254 36.9658C465.462 37.0303 465.688 37.0142 465.884 36.9209C466.08 36.8276 466.23 36.6645 466.303 36.4663C466.376 36.268 466.366 36.0502 466.274 35.8593C466.183 35.6683 466.017 35.5192 465.813 35.4436L465.76 35.4307Z" fill="#0C0C0C"/>
<path d="M476.964 36.3446C478.169 35.7819 479.506 35.5352 480.842 35.6293C481.519 35.6716 482.186 35.8126 482.819 36.0473C483.464 36.2824 484.075 36.5944 484.639 36.976L484.675 36.9992C484.796 37.0743 484.943 37.1014 485.084 37.0751C485.225 37.0487 485.351 36.9709 485.434 36.8578C485.517 36.7448 485.552 36.6052 485.53 36.4682C485.509 36.3313 485.434 36.2075 485.32 36.1227C484.701 35.6445 484.022 35.2434 483.299 34.9289C482.567 34.607 481.789 34.3926 480.99 34.293C479.364 34.0798 477.708 34.2931 476.198 34.9102C476.097 34.9525 476.005 35.0137 475.928 35.0901C475.851 35.1665 475.791 35.2566 475.751 35.3555C475.71 35.4543 475.69 35.5598 475.692 35.666C475.694 35.7722 475.718 35.877 475.762 35.9744C475.851 36.1711 476.017 36.3258 476.225 36.4044C476.328 36.4433 476.437 36.4624 476.548 36.4606C476.658 36.4587 476.767 36.436 476.868 36.3936L476.915 36.3723L476.964 36.3446Z" fill="#0C0C0C"/>
<path d="M476.197 12.5266C477.261 7.63112 475.319 3.09924 471.861 2.40433C468.402 1.70943 464.736 5.11465 463.672 10.0101C462.609 14.9055 464.55 19.4374 468.009 20.1323C471.468 20.8272 475.134 17.422 476.197 12.5266Z" fill="#0C0C0C"/>
<path d="M425.161 141.764C426.065 151.975 432.471 215.684 433.343 228.262H551.097C551.773 216.918 554.811 167.312 557.377 145.126C559.826 123.956 563.259 114.323 560.438 107.745C555.463 96.1422 539.627 90.9612 528.903 89.5648C522.355 88.7122 512.506 88.1014 512.506 88.1014C512.506 88.1014 511.672 104.324 491.788 105.227C464.719 106.453 466.527 88.1014 466.393 88.1014C462.008 88.1014 438.139 91.1682 432.17 94.909C423.74 100.193 421.249 107.394 421.15 114.009C421.037 121.628 424.137 130.181 425.161 141.764Z" fill="#367CFF"/>
<path d="M431.132 203.156C431.048 203.156 430.967 203.126 430.904 203.072C430.842 203.017 430.804 202.942 430.796 202.862L426.335 153.793C426.327 153.708 426.355 153.623 426.412 153.557C426.469 153.492 426.551 153.451 426.64 153.443C426.684 153.439 426.728 153.443 426.77 153.455C426.813 153.468 426.852 153.489 426.886 153.516C426.92 153.543 426.948 153.577 426.968 153.615C426.988 153.653 427 153.694 427.003 153.737L431.464 202.806C431.472 202.891 431.444 202.975 431.387 203.041C431.33 203.106 431.248 203.147 431.16 203.155C431.151 203.156 431.141 203.156 431.132 203.156Z" fill="#0C0C0C"/>
<path d="M439.67 231.658L455.839 219.043L453.118 219.783C452.235 220.005 451.297 219.896 450.494 219.479C449.691 219.061 449.083 218.366 448.792 217.534C448.658 217.099 448.617 216.643 448.672 216.193C448.727 215.742 448.877 215.308 449.112 214.915C449.348 214.522 449.664 214.18 450.042 213.908C450.419 213.637 450.851 213.443 451.309 213.337L485.276 205.392L488.199 215.797C489.107 219.028 488.991 222.447 487.866 225.614C486.74 228.782 484.657 231.554 481.883 233.575L469.297 242.709C468.652 243.195 467.853 243.453 467.035 243.438C466.216 243.423 465.428 243.136 464.803 242.627C464.249 242.155 463.866 241.524 463.711 240.828C463.555 240.132 463.636 239.406 463.94 238.757C463.885 238.741 463.836 238.712 463.798 238.672C463.764 238.633 463.741 238.586 463.73 238.536C463.719 238.486 463.722 238.435 463.737 238.386L461.418 240.075C460.702 240.619 459.797 240.881 458.888 240.808C457.978 240.736 457.131 240.333 456.518 239.683C455.991 239.084 455.701 238.325 455.698 237.54C455.696 236.755 455.982 235.994 456.505 235.391C456.468 235.386 456.433 235.375 456.401 235.357L455.449 236.051C454.804 236.537 454.005 236.795 453.186 236.78C452.368 236.765 451.579 236.478 450.955 235.969C450.283 235.396 449.867 234.595 449.795 233.735C449.723 232.874 450.001 232.02 450.57 231.351C450.556 231.333 450.545 231.313 450.536 231.291L443.803 236.545C443.469 236.805 443.085 237 442.673 237.117C442.261 237.235 441.829 237.274 441.401 237.231C440.974 237.188 440.559 237.065 440.182 236.868C439.804 236.671 439.47 236.404 439.199 236.083C438.928 235.762 438.726 235.393 438.603 234.997C438.481 234.601 438.441 234.185 438.485 233.774C438.53 233.363 438.658 232.964 438.863 232.601C439.068 232.237 439.345 231.916 439.679 231.656L439.67 231.658Z" fill="#E98862"/>
<path opacity="0.2" d="M450.939 231.479C450.974 231.467 451.008 231.449 451.037 231.426L457.515 226.25C457.548 226.223 457.576 226.191 457.595 226.155C457.615 226.118 457.628 226.078 457.632 226.037C457.635 225.996 457.631 225.955 457.618 225.916C457.605 225.876 457.585 225.84 457.557 225.808C457.53 225.777 457.496 225.75 457.459 225.731C457.421 225.712 457.379 225.7 457.337 225.697C457.294 225.693 457.251 225.697 457.21 225.709C457.169 225.722 457.131 225.742 457.098 225.768L450.62 230.943C450.561 230.99 450.522 231.056 450.508 231.128C450.494 231.201 450.508 231.276 450.546 231.34C450.584 231.404 450.644 231.453 450.716 231.478C450.788 231.504 450.867 231.504 450.939 231.479Z" fill="#0A0A0A"/>
<path opacity="0.2" d="M456.648 235.388C456.683 235.376 456.716 235.359 456.744 235.336L461.869 231.306C461.936 231.254 461.978 231.178 461.987 231.095C461.996 231.012 461.97 230.929 461.915 230.865C461.86 230.801 461.781 230.76 461.695 230.751C461.609 230.743 461.523 230.768 461.456 230.821L456.332 234.85C456.272 234.897 456.231 234.963 456.217 235.035C456.203 235.108 456.216 235.183 456.254 235.248C456.292 235.312 456.352 235.362 456.424 235.387C456.497 235.413 456.576 235.413 456.648 235.388Z" fill="#0A0A0A"/>
<path opacity="0.2" d="M464.149 238.767C464.187 238.754 464.221 238.735 464.252 238.71L466.625 236.752C466.658 236.726 466.684 236.693 466.704 236.656C466.723 236.62 466.735 236.58 466.738 236.539C466.741 236.498 466.736 236.456 466.723 236.417C466.71 236.378 466.688 236.342 466.661 236.311C466.633 236.28 466.599 236.254 466.561 236.235C466.523 236.217 466.481 236.206 466.438 236.203C466.396 236.199 466.353 236.204 466.312 236.217C466.272 236.23 466.234 236.25 466.201 236.277L463.827 238.234C463.77 238.282 463.731 238.348 463.719 238.42C463.706 238.492 463.72 238.566 463.758 238.629C463.797 238.693 463.857 238.741 463.928 238.766C463.999 238.791 464.078 238.792 464.149 238.767Z" fill="#0A0A0A"/>
<path d="M582.573 200.76L582.449 200.23L560.956 108.811L518.435 118.055L535.21 189.414L468.01 205.293L476.28 241.759L565.833 225.333C566.034 225.294 566.332 225.236 566.536 225.192C569.258 224.6 571.831 223.499 574.11 221.951C576.388 220.403 578.327 218.439 579.817 216.17C581.306 213.901 582.316 211.373 582.789 208.729C583.261 206.084 583.188 203.377 582.573 200.76Z" fill="#367CFF"/>
<path d="M467.681 205.362C467.663 205.281 467.679 205.195 467.725 205.125C467.772 205.054 467.845 205.003 467.929 204.983L534.831 189.181L523.953 142.979C523.941 142.936 523.938 142.892 523.944 142.849C523.95 142.806 523.965 142.764 523.988 142.727C524.011 142.689 524.042 142.656 524.079 142.631C524.116 142.605 524.157 142.587 524.202 142.577C524.246 142.567 524.292 142.567 524.337 142.574C524.381 142.582 524.424 142.599 524.462 142.623C524.5 142.647 524.532 142.679 524.557 142.715C524.582 142.752 524.598 142.793 524.606 142.836L535.557 189.348C535.577 189.431 535.563 189.518 535.517 189.59C535.47 189.663 535.396 189.715 535.31 189.735L468.404 205.537C468.404 205.537 468.852 207.417 468.979 208.052C468.989 208.135 468.964 208.218 468.911 208.283C468.857 208.348 468.778 208.39 468.692 208.4C468.607 208.409 468.52 208.386 468.452 208.334C468.385 208.282 468.341 208.207 468.331 208.124C468.177 207.428 467.681 205.362 467.681 205.362Z" fill="#0C0C0C"/>
<path d="M470.303 256.283L444.465 179.904C444.012 178.561 443.128 177.392 441.94 176.562C440.752 175.733 439.322 175.286 437.855 175.286H332.59C331.492 175.286 330.411 175.536 329.433 176.015C328.455 176.494 327.609 177.189 326.964 178.043C326.32 178.897 325.894 179.885 325.723 180.928C325.552 181.97 325.639 183.036 325.979 184.04L351.817 260.419C352.271 261.761 353.155 262.931 354.343 263.76C355.53 264.589 356.96 265.036 358.428 265.036H463.692C464.79 265.036 465.871 264.786 466.849 264.307C467.827 263.828 468.672 263.133 469.317 262.279C469.962 261.425 470.387 260.437 470.559 259.395C470.73 258.353 470.643 257.286 470.303 256.283Z" fill="#292A2E"/>
<path opacity="0.2" d="M470.303 256.283L444.465 179.904C444.012 178.561 443.128 177.392 441.94 176.562C440.752 175.733 439.322 175.286 437.855 175.286H332.59C331.492 175.286 330.411 175.536 329.433 176.015C328.455 176.494 327.609 177.189 326.964 178.043C326.32 178.897 325.894 179.885 325.723 180.928C325.552 181.97 325.639 183.036 325.979 184.04L351.817 260.419C352.271 261.761 353.155 262.931 354.343 263.76C355.53 264.589 356.96 265.036 358.428 265.036H463.692C464.79 265.036 465.871 264.786 466.849 264.307C467.827 263.828 468.672 263.133 469.317 262.279C469.962 261.425 470.387 260.437 470.559 259.395C470.73 258.353 470.643 257.286 470.303 256.283Z" fill="white"/>
<path d="M395.109 230.778C401.206 230.778 406.149 226.025 406.149 220.161C406.149 214.298 401.206 209.544 395.109 209.544C389.012 209.544 384.069 214.298 384.069 220.161C384.069 226.025 389.012 230.778 395.109 230.778Z" fill="white"/>
<path d="M291.179 8.07111H82.2541C72.5751 8.07111 64.7286 15.6167 64.7286 24.9248V268.832C64.7286 278.14 72.5751 285.686 82.2541 285.686H291.179C300.858 285.686 308.705 278.14 308.705 268.832V24.9248C308.705 15.6167 300.858 8.07111 291.179 8.07111Z" fill="#292A2E"/>
<path d="M298.901 0.644958H89.9763C80.2972 0.644958 72.4508 8.1906 72.4508 17.4986V261.406C72.4508 270.714 80.2972 278.26 89.9763 278.26H298.901C308.581 278.26 316.427 270.714 316.427 261.406V17.4986C316.427 8.1906 308.581 0.644958 298.901 0.644958Z" fill="white"/>
<path d="M298.901 278.905H89.9763C85.1519 278.9 80.5266 277.054 77.1153 273.774C73.704 270.493 71.7853 266.045 71.7802 261.406V17.4986C71.7855 12.8593 73.7043 8.41141 77.1156 5.13089C80.5269 1.85037 85.152 0.00512146 89.9763 0L298.901 0C303.726 0.00529214 308.351 1.85061 311.762 5.13111C315.173 8.41162 317.092 12.8594 317.097 17.4986V261.406C317.092 266.045 315.173 270.493 311.762 273.774C308.351 277.054 303.726 278.9 298.901 278.905ZM89.9763 1.28994C85.5077 1.29472 81.2235 3.00395 78.0637 6.04263C74.9038 9.08132 73.1265 13.2013 73.1215 17.4986V261.406C73.1265 265.703 74.9038 269.823 78.0637 272.862C81.2235 275.9 85.5077 277.61 89.9763 277.614H298.901C303.37 277.61 307.654 275.9 310.814 272.862C313.974 269.823 315.751 265.703 315.756 261.406V17.4986C315.751 13.2013 313.974 9.08138 310.814 6.04267C307.654 3.00397 303.37 1.29472 298.901 1.28994H89.9763Z" fill="#292A2E"/>
<path d="M69.6366 313.16C93.6674 313.16 113.148 294.426 113.148 271.317C113.148 248.207 93.6674 229.473 69.6366 229.473C45.6058 229.473 26.125 248.207 26.125 271.317C26.125 294.426 45.6058 313.16 69.6366 313.16Z" fill="#292A2E"/>
<path d="M60.6039 265.856C60.031 265.856 59.4817 265.637 59.0766 265.248C58.6715 264.858 58.4438 264.33 58.4436 263.779V253.723C58.4436 248.163 63.465 243.639 69.6366 243.639C75.8081 243.639 80.8295 248.163 80.8295 253.723V263.089C80.8346 263.365 80.7824 263.639 80.6762 263.895C80.5699 264.151 80.4116 264.385 80.2105 264.582C80.0095 264.778 79.7696 264.935 79.5051 265.041C79.2405 265.148 78.9565 265.203 78.6696 265.203C78.3827 265.203 78.0987 265.148 77.8341 265.041C77.5696 264.935 77.3297 264.778 77.1287 264.582C76.9276 264.385 76.7693 264.151 76.663 263.895C76.5568 263.639 76.5046 263.365 76.5097 263.089V253.723C76.5097 250.453 73.4246 247.793 69.6366 247.793C65.8486 247.793 62.7634 250.453 62.7634 253.723V263.78C62.7631 264.331 62.5354 264.859 62.1304 265.248C61.7255 265.637 61.1764 265.856 60.6039 265.856Z" fill="white"/>
<path d="M83.4164 262.041H55.8569C54.2497 262.041 52.9468 263.294 52.9468 264.839V289.804C52.9468 291.349 54.2497 292.602 55.8569 292.602H83.4164C85.0236 292.602 86.3265 291.349 86.3265 289.804V264.839C86.3265 263.294 85.0236 262.041 83.4164 262.041Z" fill="white"/>
<path d="M66.8929 274.85C66.8926 275.345 67.0371 275.83 67.3099 276.25C67.5826 276.67 67.9727 277.008 68.4354 277.225V281.279C68.4354 281.585 68.5616 281.878 68.7863 282.094C69.0109 282.31 69.3156 282.431 69.6333 282.431C69.951 282.431 70.2556 282.31 70.4803 282.094C70.7049 281.878 70.8311 281.585 70.8311 281.279V277.225C71.2719 277.019 71.6474 276.704 71.9185 276.311C72.1897 275.919 72.3466 275.464 72.373 274.993C72.3994 274.523 72.2944 274.054 72.0688 273.636C71.8431 273.218 71.5052 272.865 71.09 272.615C70.6748 272.365 70.1975 272.226 69.7078 272.213C69.218 272.201 68.7336 272.314 68.3049 272.542C67.8762 272.77 67.5189 273.105 67.27 273.51C67.0211 273.916 66.8897 274.379 66.8895 274.85H66.8929Z" fill="#292A2E"/>
<path d="M280.657 139.167H108.221C104.104 139.167 100.767 142.376 100.767 146.334V169.582C100.767 173.54 104.104 176.749 108.221 176.749H280.657C284.773 176.749 288.11 173.54 288.11 169.582V146.334C288.11 142.376 284.773 139.167 280.657 139.167Z" fill="white"/>
<path d="M280.656 177.393H108.221C106.067 177.391 104.002 176.567 102.479 175.102C100.956 173.638 100.099 171.652 100.097 169.581V146.334C100.099 144.263 100.956 142.277 102.479 140.812C104.002 139.348 106.067 138.524 108.221 138.521H280.656C282.81 138.524 284.875 139.347 286.398 140.812C287.922 142.277 288.778 144.263 288.781 146.334V169.581C288.778 171.652 287.922 173.638 286.398 175.103C284.875 176.567 282.81 177.391 280.656 177.393ZM108.221 139.811C106.422 139.813 104.698 140.501 103.427 141.724C102.155 142.947 101.44 144.605 101.438 146.334V169.581C101.44 171.31 102.155 172.968 103.427 174.191C104.698 175.414 106.422 176.102 108.221 176.103H280.656C282.455 176.102 284.179 175.414 285.45 174.191C286.722 172.968 287.437 171.31 287.44 169.581V146.334C287.438 144.605 286.722 142.947 285.451 141.724C284.179 140.501 282.455 139.813 280.656 139.811H108.221Z" fill="#292A2E"/>
<path d="M280.657 192.876H108.221C104.104 192.876 100.767 196.085 100.767 200.043V223.291C100.767 227.249 104.104 230.458 108.221 230.458H280.657C284.773 230.458 288.11 227.249 288.11 223.291V200.043C288.11 196.085 284.773 192.876 280.657 192.876Z" fill="white"/>
<path d="M280.656 231.102H108.221C106.067 231.1 104.001 230.276 102.478 228.811C100.955 227.346 100.099 225.36 100.097 223.288V200.043C100.099 197.972 100.956 195.986 102.479 194.522C104.002 193.057 106.067 192.233 108.221 192.231H280.656C282.81 192.233 284.875 193.057 286.398 194.521C287.922 195.986 288.778 197.972 288.781 200.043V223.288C288.779 225.36 287.922 227.346 286.399 228.811C284.876 230.276 282.811 231.1 280.656 231.102ZM108.221 193.521C106.422 193.523 104.698 194.21 103.427 195.433C102.155 196.656 101.44 198.314 101.438 200.043V223.288C101.44 225.017 102.155 226.675 103.427 227.898C104.698 229.121 106.422 229.809 108.221 229.811H280.656C282.455 229.809 284.179 229.121 285.451 227.898C286.722 226.675 287.438 225.017 287.44 223.288V200.043C287.438 198.314 286.722 196.656 285.451 195.433C284.179 194.21 282.455 193.522 280.656 193.521H108.221Z" fill="#292A2E"/>
<path d="M194.438 111.212C216.549 111.212 234.474 93.9745 234.474 72.7111C234.474 51.4478 216.549 34.2104 194.438 34.2104C172.327 34.2104 154.403 51.4478 154.403 72.7111C154.403 93.9745 172.327 111.212 194.438 111.212Z" fill="white"/>
<path d="M194.438 111.857C186.388 111.857 178.517 109.561 171.823 105.26C165.129 100.958 159.912 94.8445 156.831 87.6916C153.75 80.5386 152.944 72.6677 154.514 65.0742C156.085 57.4807 159.962 50.5056 165.655 45.031C171.348 39.5563 178.601 35.8281 186.497 34.3176C194.393 32.8072 202.578 33.5824 210.016 36.5452C217.454 39.5081 223.812 44.5255 228.284 50.963C232.757 57.4004 235.145 64.9689 235.145 72.7112C235.133 83.0897 230.84 93.0398 223.209 100.379C215.578 107.717 205.231 111.845 194.438 111.857ZM194.438 34.8554C186.653 34.8554 179.042 37.0756 172.569 41.2352C166.095 45.3949 161.05 51.3071 158.07 58.2244C155.091 65.1416 154.311 72.7531 155.83 80.0964C157.349 87.4397 161.098 94.185 166.603 99.4792C172.109 104.773 179.123 108.379 186.759 109.84C194.395 111.3 202.31 110.551 209.503 107.685C216.696 104.82 222.844 99.968 227.169 93.7427C231.495 87.5173 233.803 80.1983 233.803 72.7112C233.792 62.6746 229.64 53.0524 222.261 45.9555C214.881 38.8586 204.875 34.8667 194.438 34.8554Z" fill="#292A2E"/>
<path opacity="0.5" d="M233.585 72.7112C233.596 81.6225 230.308 90.2466 224.309 97.0387C220.614 92.8964 216.032 89.5717 210.875 87.2927C205.719 85.0136 200.111 83.8341 194.436 83.8351C188.761 83.8361 183.154 85.0175 177.998 87.2983C172.843 89.5792 168.261 92.9055 164.568 97.049C160.494 92.4256 157.642 86.9249 156.252 81.0143C154.862 75.1037 154.977 68.9579 156.586 63.099C158.195 57.2401 161.251 51.8413 165.494 47.3613C169.738 42.8813 175.043 39.4525 180.959 37.3662C186.875 35.28 193.227 34.5979 199.476 35.378C205.725 36.1581 211.686 38.3773 216.852 41.847C222.018 45.3167 226.237 49.9344 229.15 55.3078C232.063 60.6812 233.585 66.6514 233.585 72.7112Z" fill="#367CFF"/>
<path d="M224.309 97.0387C220.635 101.211 216.06 104.564 210.902 106.864C205.744 109.164 200.127 110.356 194.441 110.357C188.756 110.358 183.138 109.168 177.979 106.87C172.82 104.571 168.244 101.22 164.568 97.049C168.261 92.9055 172.843 89.5792 177.998 87.2983C183.154 85.0175 188.761 83.8361 194.436 83.8351C200.111 83.8341 205.719 85.0136 210.875 87.2927C216.032 89.5717 220.615 92.8964 224.309 97.0387Z" fill="white"/>
<path d="M194.439 76.8112C203.178 76.8112 210.262 69.9985 210.262 61.5945C210.262 53.1905 203.178 46.3777 194.439 46.3777C185.7 46.3777 178.616 53.1905 178.616 61.5945C178.616 69.9985 185.7 76.8112 194.439 76.8112Z" fill="white"/>
<g opacity="0.4">
<path d="M115.282 216.244C117.911 216.244 120.041 214.195 120.041 211.667C120.041 209.139 117.911 207.09 115.282 207.09C112.654 207.09 110.523 209.139 110.523 211.667C110.523 214.195 112.654 216.244 115.282 216.244Z" fill="#292A2E"/>
<path d="M130.169 216.244C132.798 216.244 134.929 214.195 134.929 211.667C134.929 209.139 132.798 207.09 130.169 207.09C127.541 207.09 125.41 209.139 125.41 211.667C125.41 214.195 127.541 216.244 130.169 216.244Z" fill="#292A2E"/>
<path d="M145.057 216.244C147.685 216.244 149.816 214.195 149.816 211.667C149.816 209.139 147.685 207.09 145.057 207.09C142.428 207.09 140.297 209.139 140.297 211.667C140.297 214.195 142.428 216.244 145.057 216.244Z" fill="#292A2E"/>
<path d="M159.943 216.244C162.572 216.244 164.703 214.195 164.703 211.667C164.703 209.139 162.572 207.09 159.943 207.09C157.315 207.09 155.184 209.139 155.184 211.667C155.184 214.195 157.315 216.244 159.943 216.244Z" fill="#292A2E"/>
<path d="M174.83 216.244C177.458 216.244 179.589 214.195 179.589 211.667C179.589 209.139 177.458 207.09 174.83 207.09C172.202 207.09 170.071 209.139 170.071 211.667C170.071 214.195 172.202 216.244 174.83 216.244Z" fill="#292A2E"/>
<path d="M189.717 216.244C192.345 216.244 194.476 214.195 194.476 211.667C194.476 209.139 192.345 207.09 189.717 207.09C187.088 207.09 184.958 209.139 184.958 211.667C184.958 214.195 187.088 216.244 189.717 216.244Z" fill="#292A2E"/>
<path d="M204.604 216.244C207.232 216.244 209.363 214.195 209.363 211.667C209.363 209.139 207.232 207.09 204.604 207.09C201.976 207.09 199.845 209.139 199.845 211.667C199.845 214.195 201.976 216.244 204.604 216.244Z" fill="#292A2E"/>
</g>
<g opacity="0.3">
<path d="M120.003 157.682V159.23H113.891V157.682H120.003Z" fill="black"/>
<path d="M127.598 157.682V159.23H121.486V157.682H127.598Z" fill="black"/>
<path d="M135.193 157.682V159.23H129.081V157.682H135.193Z" fill="black"/>
<path d="M142.788 157.682V159.23H136.676V157.682H142.788Z" fill="black"/>
<path d="M150.384 157.682V159.23H144.271V157.682H150.384Z" fill="black"/>
<path d="M164.09 166.415C162.731 167.087 161.216 167.415 159.689 167.369C155.63 167.369 152.19 164.513 152.19 159.944C152.19 155.043 155.73 150.806 161.222 150.806C165.528 150.806 168.424 153.709 168.424 157.684C168.424 161.254 166.344 163.347 164.019 163.347C163.029 163.347 162.114 162.702 162.188 161.254H162.088C161.768 161.881 161.272 162.41 160.656 162.78C160.039 163.15 159.327 163.346 158.601 163.347C157.166 163.347 155.928 162.229 155.928 160.349C155.925 159.608 156.075 158.873 156.369 158.188C156.663 157.502 157.095 156.88 157.64 156.355C158.185 155.831 158.833 155.416 159.545 155.133C160.258 154.851 161.022 154.707 161.793 154.709C162.702 154.696 163.604 154.867 164.441 155.209L163.599 159.516C163.228 161.322 163.526 162.16 164.342 162.182C165.604 162.205 167.014 160.587 167.014 157.827C167.014 154.376 164.862 151.902 161.026 151.902C156.992 151.902 153.602 154.971 153.602 159.802C153.602 163.776 156.3 166.227 159.962 166.227C161.261 166.256 162.546 165.97 163.699 165.394L164.09 166.415ZM162.729 156.135C162.328 156.022 161.911 155.966 161.492 155.969C159.314 155.969 157.558 157.944 157.558 160.252C157.558 161.299 158.102 162.058 159.191 162.058C160.626 162.058 161.937 160.297 162.209 158.821L162.729 156.135Z" fill="black"/>
<path d="M176.212 157.682V159.23H170.1V157.682H176.212Z" fill="black"/>
<path d="M183.808 157.682V159.23H177.695V157.682H183.808Z" fill="black"/>
<path d="M191.402 157.682V159.23H185.29V157.682H191.402Z" fill="black"/>
</g>
</g>
<defs>
<clipPath id="clip0_47_4">
<rect width="597" height="556" fill="white"/>
</clipPath>
</defs>
</svg>
