<svg width="831" height="626" viewBox="0 0 831 626" fill="none" xmlns="http://www.w3.org/2000/svg">
<path opacity="0.1" d="M722.553 611.399C798.088 611.399 821.101 538.283 799.339 448.741C787.032 398.102 758.573 331.883 712.079 301.916C584.846 219.908 601.993 215.971 570.496 128.683C519.08 -13.8093 321.37 -19.3078 240.585 82.7985C177.728 162.245 150.829 274.244 65.1906 356.764C-38.1802 456.371 -9.98582 612.842 89.3084 612.842L722.553 611.399Z" fill="#367CFF"/>
<path d="M761.141 477.308H44.155L85.4185 376.011H719.877L761.141 477.308Z" fill="#292A2E"/>
<path d="M761.141 477.308H44.155L85.4185 376.011H719.877L761.141 477.308Z" fill="white"/>
<path d="M761.141 478.2H44.1589C44.027 478.2 43.8972 478.162 43.7816 478.09C43.6659 478.018 43.5682 477.913 43.4975 477.786C43.4268 477.659 43.3853 477.514 43.377 477.364C43.3687 477.214 43.3938 477.064 43.45 476.928L84.7105 375.632C84.7736 375.478 84.8737 375.349 84.9991 375.258C85.1245 375.167 85.27 375.119 85.4186 375.119H719.876C720.025 375.119 720.171 375.167 720.296 375.258C720.422 375.348 720.522 375.478 720.585 375.632L761.851 476.928C761.907 477.063 761.932 477.213 761.924 477.363C761.916 477.512 761.875 477.657 761.805 477.784C761.735 477.911 761.638 478.015 761.523 478.088C761.408 478.161 761.278 478.199 761.147 478.2H761.141ZM45.3865 476.415H759.908L719.38 376.903H85.9162L45.3865 476.415Z" fill="#292A2E"/>
<path d="M452.23 342.097H382.796V401.961H452.23V342.097Z" fill="#292A2E"/>
<path opacity="0.64" d="M452.231 342.098H382.796V374.078H452.231V342.098Z" fill="#0C0C0C"/>
<path d="M564.985 104.592H270.041C265.402 104.592 261.642 108.881 261.642 114.171V348.918C261.642 354.209 265.402 358.498 270.041 358.498H564.985C569.624 358.498 573.385 354.209 573.385 348.918V114.171C573.385 108.881 569.624 104.592 564.985 104.592Z" fill="#292A2E"/>
<path d="M560.838 115.473H274.188C272.284 115.473 270.74 117.233 270.74 119.405V314.094C270.74 316.266 272.284 318.026 274.188 318.026H560.838C562.743 318.026 564.286 316.266 564.286 314.094V119.405C564.286 117.233 562.743 115.473 560.838 115.473Z" fill="white"/>
<path d="M466.676 397.041H368.35C365.834 397.041 363.794 399.367 363.794 402.237C363.794 405.106 365.834 407.433 368.35 407.433H466.676C469.193 407.433 471.233 405.106 471.233 402.237C471.233 399.367 469.193 397.041 466.676 397.041Z" fill="#292A2E"/>
<path d="M368.882 147.827H355.828C355.75 147.83 355.672 147.816 355.6 147.784C355.527 147.752 355.46 147.704 355.404 147.643C355.348 147.581 355.304 147.507 355.273 147.425C355.243 147.343 355.227 147.255 355.227 147.167C355.227 147.078 355.243 146.99 355.273 146.908C355.304 146.826 355.348 146.752 355.404 146.69C355.46 146.629 355.527 146.581 355.6 146.549C355.672 146.517 355.75 146.503 355.828 146.506H368.882C369.032 146.512 369.174 146.584 369.278 146.708C369.383 146.831 369.441 146.995 369.441 147.167C369.441 147.338 369.383 147.502 369.278 147.625C369.174 147.749 369.032 147.821 368.882 147.827Z" fill="#292A2E"/>
<path d="M346.413 147.827H341.474C341.396 147.83 341.319 147.816 341.246 147.784C341.173 147.752 341.107 147.704 341.05 147.643C340.994 147.581 340.95 147.507 340.919 147.425C340.889 147.343 340.873 147.255 340.873 147.167C340.873 147.078 340.889 146.99 340.919 146.908C340.95 146.826 340.994 146.752 341.05 146.69C341.107 146.629 341.173 146.581 341.246 146.549C341.319 146.517 341.396 146.503 341.474 146.506H346.413C346.491 146.503 346.569 146.517 346.642 146.549C346.714 146.581 346.781 146.629 346.837 146.69C346.893 146.752 346.938 146.826 346.968 146.908C346.999 146.99 347.014 147.078 347.014 147.167C347.014 147.255 346.999 147.343 346.968 147.425C346.938 147.507 346.893 147.581 346.837 147.643C346.781 147.704 346.714 147.752 346.642 147.784C346.569 147.816 346.491 147.83 346.413 147.827Z" fill="#367CFF"/>
<path d="M346.413 159.752H341.474C341.32 159.752 341.173 159.683 341.064 159.559C340.955 159.435 340.894 159.267 340.894 159.091C340.894 158.916 340.955 158.748 341.064 158.624C341.173 158.5 341.32 158.43 341.474 158.43H346.413C346.567 158.43 346.715 158.5 346.823 158.624C346.932 158.748 346.993 158.916 346.993 159.091C346.993 159.267 346.932 159.435 346.823 159.559C346.715 159.683 346.567 159.752 346.413 159.752Z" fill="#367CFF"/>
<path d="M346.413 171.677H341.474C341.32 171.677 341.173 171.608 341.064 171.484C340.955 171.36 340.894 171.192 340.894 171.016C340.894 170.841 340.955 170.673 341.064 170.549C341.173 170.425 341.32 170.355 341.474 170.355H346.413C346.567 170.355 346.715 170.425 346.823 170.549C346.932 170.673 346.993 170.841 346.993 171.016C346.993 171.192 346.932 171.36 346.823 171.484C346.715 171.608 346.567 171.677 346.413 171.677Z" fill="#367CFF"/>
<path d="M346.413 183.603H341.474C341.32 183.603 341.173 183.533 341.064 183.409C340.955 183.285 340.894 183.117 340.894 182.941C340.894 182.766 340.955 182.598 341.064 182.474C341.173 182.35 341.32 182.28 341.474 182.28H346.413C346.567 182.28 346.715 182.35 346.823 182.474C346.932 182.598 346.993 182.766 346.993 182.941C346.993 183.117 346.932 183.285 346.823 183.409C346.715 183.533 346.567 183.603 346.413 183.603Z" fill="#367CFF"/>
<path d="M346.413 195.527H341.474C341.396 195.53 341.319 195.515 341.246 195.484C341.173 195.452 341.107 195.404 341.05 195.342C340.994 195.28 340.95 195.206 340.919 195.125C340.889 195.043 340.873 194.955 340.873 194.866C340.873 194.777 340.889 194.689 340.919 194.607C340.95 194.526 340.994 194.452 341.05 194.39C341.107 194.328 341.173 194.28 341.246 194.248C341.319 194.217 341.396 194.202 341.474 194.205H346.413C346.491 194.202 346.569 194.217 346.642 194.248C346.714 194.28 346.781 194.328 346.837 194.39C346.893 194.452 346.938 194.526 346.968 194.607C346.999 194.689 347.014 194.777 347.014 194.866C347.014 194.955 346.999 195.043 346.968 195.125C346.938 195.206 346.893 195.28 346.837 195.342C346.781 195.404 346.714 195.452 346.642 195.484C346.569 195.515 346.491 195.53 346.413 195.527Z" fill="#367CFF"/>
<path d="M346.413 207.448H341.474C341.32 207.448 341.173 207.379 341.064 207.255C340.955 207.131 340.894 206.962 340.894 206.787C340.894 206.612 340.955 206.444 341.064 206.32C341.173 206.196 341.32 206.126 341.474 206.126H346.413C346.567 206.126 346.715 206.196 346.823 206.32C346.932 206.444 346.993 206.612 346.993 206.787C346.993 206.962 346.932 207.131 346.823 207.255C346.715 207.379 346.567 207.448 346.413 207.448Z" fill="#367CFF"/>
<path d="M346.413 219.377H341.474C341.32 219.377 341.173 219.307 341.064 219.183C340.955 219.059 340.894 218.891 340.894 218.716C340.894 218.54 340.955 218.372 341.064 218.248C341.173 218.124 341.32 218.055 341.474 218.055H346.413C346.567 218.055 346.715 218.124 346.823 218.248C346.932 218.372 346.993 218.54 346.993 218.716C346.993 218.891 346.932 219.059 346.823 219.183C346.715 219.307 346.567 219.377 346.413 219.377Z" fill="#367CFF"/>
<path d="M346.413 231.301H341.474C341.396 231.304 341.319 231.29 341.246 231.258C341.173 231.226 341.107 231.178 341.05 231.116C340.994 231.055 340.95 230.981 340.919 230.899C340.889 230.817 340.873 230.729 340.873 230.64C340.873 230.551 340.889 230.464 340.919 230.382C340.95 230.3 340.994 230.226 341.05 230.164C341.107 230.103 341.173 230.055 341.246 230.023C341.319 229.991 341.396 229.976 341.474 229.98H346.413C346.491 229.976 346.569 229.991 346.642 230.023C346.714 230.055 346.781 230.103 346.837 230.164C346.893 230.226 346.938 230.3 346.968 230.382C346.999 230.464 347.014 230.551 347.014 230.64C347.014 230.729 346.999 230.817 346.968 230.899C346.938 230.981 346.893 231.055 346.837 231.116C346.781 231.178 346.714 231.226 346.642 231.258C346.569 231.29 346.491 231.304 346.413 231.301Z" fill="#367CFF"/>
<path d="M346.413 243.228H341.474C341.32 243.228 341.173 243.158 341.064 243.034C340.955 242.91 340.894 242.742 340.894 242.567C340.894 242.391 340.955 242.223 341.064 242.099C341.173 241.975 341.32 241.906 341.474 241.906H346.413C346.567 241.906 346.715 241.975 346.823 242.099C346.932 242.223 346.993 242.391 346.993 242.567C346.993 242.742 346.932 242.91 346.823 243.034C346.715 243.158 346.567 243.228 346.413 243.228Z" fill="#367CFF"/>
<path d="M346.413 255.151H341.474C341.32 255.151 341.173 255.082 341.064 254.958C340.955 254.834 340.894 254.665 340.894 254.49C340.894 254.315 340.955 254.147 341.064 254.023C341.173 253.899 341.32 253.829 341.474 253.829H346.413C346.567 253.829 346.715 253.899 346.823 254.023C346.932 254.147 346.993 254.315 346.993 254.49C346.993 254.665 346.932 254.834 346.823 254.958C346.715 255.082 346.567 255.151 346.413 255.151Z" fill="#367CFF"/>
<path d="M346.413 267.075H341.474C341.396 267.079 341.319 267.064 341.246 267.032C341.173 267.001 341.107 266.952 341.05 266.891C340.994 266.829 340.95 266.755 340.919 266.673C340.889 266.592 340.873 266.504 340.873 266.415C340.873 266.326 340.889 266.238 340.919 266.156C340.95 266.074 340.994 266 341.05 265.939C341.107 265.877 341.173 265.829 341.246 265.797C341.319 265.765 341.396 265.751 341.474 265.754H346.413C346.491 265.751 346.569 265.765 346.642 265.797C346.714 265.829 346.781 265.877 346.837 265.939C346.893 266 346.938 266.074 346.968 266.156C346.999 266.238 347.014 266.326 347.014 266.415C347.014 266.504 346.999 266.592 346.968 266.673C346.938 266.755 346.893 266.829 346.837 266.891C346.781 266.952 346.714 267.001 346.642 267.032C346.569 267.064 346.491 267.079 346.413 267.075Z" fill="#367CFF"/>
<path d="M346.413 279.001H341.474C341.32 279.001 341.173 278.931 341.064 278.807C340.955 278.683 340.894 278.515 340.894 278.339C340.894 278.164 340.955 277.996 341.064 277.872C341.173 277.748 341.32 277.678 341.474 277.678H346.413C346.567 277.678 346.715 277.748 346.823 277.872C346.932 277.996 346.993 278.164 346.993 278.339C346.993 278.515 346.932 278.683 346.823 278.807C346.715 278.931 346.567 279.001 346.413 279.001Z" fill="#367CFF"/>
<path d="M346.413 290.926H341.474C341.32 290.926 341.173 290.856 341.064 290.732C340.955 290.608 340.894 290.44 340.894 290.264C340.894 290.089 340.955 289.921 341.064 289.797C341.173 289.673 341.32 289.603 341.474 289.603H346.413C346.567 289.603 346.715 289.673 346.823 289.797C346.932 289.921 346.993 290.089 346.993 290.264C346.993 290.44 346.932 290.608 346.823 290.732C346.715 290.856 346.567 290.926 346.413 290.926Z" fill="#367CFF"/>
<path d="M346.413 302.85H341.474C341.396 302.853 341.319 302.838 341.246 302.807C341.173 302.775 341.107 302.727 341.05 302.665C340.994 302.604 340.95 302.53 340.919 302.448C340.889 302.366 340.873 302.278 340.873 302.189C340.873 302.1 340.889 302.012 340.919 301.931C340.95 301.849 340.994 301.775 341.05 301.713C341.107 301.651 341.173 301.603 341.246 301.572C341.319 301.54 341.396 301.525 341.474 301.528H346.413C346.491 301.525 346.569 301.54 346.642 301.572C346.714 301.603 346.781 301.651 346.837 301.713C346.893 301.775 346.938 301.849 346.968 301.931C346.999 302.012 347.014 302.1 347.014 302.189C347.014 302.278 346.999 302.366 346.968 302.448C346.938 302.53 346.893 302.604 346.837 302.665C346.781 302.727 346.714 302.775 346.642 302.807C346.569 302.838 346.491 302.853 346.413 302.85Z" fill="#367CFF"/>
<path d="M379.315 159.752H367.422C367.344 159.756 367.267 159.741 367.194 159.709C367.121 159.677 367.055 159.629 366.999 159.568C366.942 159.506 366.898 159.432 366.867 159.35C366.837 159.268 366.821 159.18 366.821 159.092C366.821 159.003 366.837 158.915 366.867 158.833C366.898 158.751 366.942 158.677 366.999 158.616C367.055 158.554 367.121 158.506 367.194 158.474C367.267 158.442 367.344 158.428 367.422 158.431H379.315C379.393 158.428 379.47 158.442 379.543 158.474C379.616 158.506 379.682 158.554 379.738 158.616C379.794 158.677 379.839 158.751 379.87 158.833C379.9 158.915 379.916 159.003 379.916 159.092C379.916 159.18 379.9 159.268 379.87 159.35C379.839 159.432 379.794 159.506 379.738 159.568C379.682 159.629 379.616 159.677 379.543 159.709C379.47 159.741 379.393 159.756 379.315 159.752Z" fill="#292A2E"/>
<path d="M368.882 231.301H355.828C355.75 231.304 355.672 231.29 355.6 231.258C355.527 231.226 355.46 231.178 355.404 231.116C355.348 231.055 355.304 230.981 355.273 230.899C355.243 230.817 355.227 230.729 355.227 230.64C355.227 230.551 355.243 230.464 355.273 230.382C355.304 230.3 355.348 230.226 355.404 230.164C355.46 230.103 355.527 230.055 355.6 230.023C355.672 229.991 355.75 229.976 355.828 229.98H368.882C369.032 229.986 369.174 230.058 369.278 230.182C369.383 230.305 369.441 230.469 369.441 230.64C369.441 230.812 369.383 230.976 369.278 231.099C369.174 231.222 369.032 231.295 368.882 231.301Z" fill="#292A2E"/>
<path d="M379.315 243.228H367.422C367.269 243.228 367.121 243.158 367.012 243.034C366.904 242.91 366.843 242.742 366.843 242.567C366.843 242.391 366.904 242.223 367.012 242.099C367.121 241.975 367.269 241.906 367.422 241.906H379.315C379.468 241.906 379.616 241.975 379.725 242.099C379.833 242.223 379.894 242.391 379.894 242.567C379.894 242.742 379.833 242.91 379.725 243.034C379.616 243.158 379.468 243.228 379.315 243.228Z" fill="#292A2E"/>
<path d="M462.199 171.677H375.535C375.381 171.677 375.234 171.608 375.125 171.484C375.016 171.36 374.955 171.192 374.955 171.016C374.955 170.841 375.016 170.673 375.125 170.549C375.234 170.425 375.381 170.355 375.535 170.355H462.199C462.353 170.355 462.501 170.425 462.609 170.549C462.718 170.673 462.779 170.841 462.779 171.016C462.779 171.192 462.718 171.36 462.609 171.484C462.501 171.608 462.353 171.677 462.199 171.677Z" fill="#292A2E"/>
<path d="M524.899 171.677H474.748C474.594 171.677 474.446 171.608 474.338 171.484C474.229 171.36 474.168 171.192 474.168 171.016C474.168 170.841 474.229 170.673 474.338 170.549C474.446 170.425 474.594 170.355 474.748 170.355H524.899C525.053 170.355 525.2 170.425 525.309 170.549C525.418 170.673 525.479 170.841 525.479 171.016C525.479 171.192 525.418 171.36 525.309 171.484C525.2 171.608 525.053 171.677 524.899 171.677Z" fill="#0CBC8B"/>
<path d="M551.813 171.677H536.443C536.289 171.677 536.141 171.608 536.033 171.484C535.924 171.36 535.863 171.192 535.863 171.016C535.863 170.841 535.924 170.673 536.033 170.549C536.141 170.425 536.289 170.355 536.443 170.355H551.814C551.968 170.355 552.116 170.425 552.224 170.549C552.333 170.673 552.394 170.841 552.394 171.016C552.394 171.192 552.333 171.36 552.224 171.484C552.116 171.608 551.968 171.677 551.814 171.677H551.813Z" fill="#292A2E"/>
<path d="M496.976 195.527H375.535C375.457 195.53 375.379 195.515 375.307 195.484C375.234 195.452 375.167 195.404 375.111 195.342C375.055 195.28 375.01 195.206 374.98 195.125C374.95 195.043 374.934 194.955 374.934 194.866C374.934 194.777 374.95 194.689 374.98 194.607C375.01 194.526 375.055 194.452 375.111 194.39C375.167 194.328 375.234 194.28 375.307 194.248C375.379 194.217 375.457 194.202 375.535 194.205H496.976C497.054 194.202 497.132 194.217 497.204 194.248C497.277 194.28 497.344 194.328 497.4 194.39C497.456 194.452 497.5 194.526 497.531 194.607C497.561 194.689 497.577 194.777 497.577 194.866C497.577 194.955 497.561 195.043 497.531 195.125C497.5 195.206 497.456 195.28 497.4 195.342C497.344 195.404 497.277 195.452 497.204 195.484C497.132 195.515 497.054 195.53 496.976 195.527Z" fill="#292A2E"/>
<path d="M524.899 195.527H509.528C509.45 195.53 509.373 195.515 509.3 195.484C509.227 195.452 509.161 195.404 509.104 195.342C509.048 195.28 509.004 195.206 508.973 195.125C508.943 195.043 508.927 194.955 508.927 194.866C508.927 194.777 508.943 194.689 508.973 194.607C509.004 194.526 509.048 194.452 509.104 194.39C509.161 194.328 509.227 194.28 509.3 194.248C509.373 194.217 509.45 194.202 509.528 194.205H524.901C524.978 194.202 525.056 194.217 525.129 194.248C525.202 194.28 525.268 194.328 525.324 194.39C525.38 194.452 525.425 194.526 525.455 194.607C525.486 194.689 525.502 194.777 525.502 194.866C525.502 194.955 525.486 195.043 525.455 195.125C525.425 195.206 525.38 195.28 525.324 195.342C525.268 195.404 525.202 195.452 525.129 195.484C525.056 195.515 524.978 195.53 524.901 195.527H524.899Z" fill="#367CFF"/>
<path d="M388.589 183.603H375.535C375.381 183.603 375.234 183.533 375.125 183.409C375.016 183.285 374.955 183.117 374.955 182.941C374.955 182.766 375.016 182.598 375.125 182.474C375.234 182.35 375.381 182.28 375.535 182.28H388.589C388.743 182.28 388.89 182.35 388.999 182.474C389.108 182.598 389.169 182.766 389.169 182.941C389.169 183.117 389.108 183.285 388.999 183.409C388.89 183.533 388.743 183.603 388.589 183.603Z" fill="#0CBC8B"/>
<path d="M490.125 183.603H401.139C400.985 183.603 400.838 183.533 400.729 183.409C400.62 183.285 400.559 183.117 400.559 182.941C400.559 182.766 400.62 182.598 400.729 182.474C400.838 182.35 400.985 182.28 401.139 182.28H490.125C490.278 182.28 490.426 182.35 490.535 182.474C490.643 182.598 490.704 182.766 490.704 182.941C490.704 183.117 490.643 183.285 490.535 183.409C490.426 183.533 490.278 183.603 490.125 183.603Z" fill="#367CFF"/>
<path d="M551.914 183.603H504.083C503.929 183.603 503.781 183.533 503.673 183.409C503.564 183.285 503.503 183.117 503.503 182.941C503.503 182.766 503.564 182.598 503.673 182.474C503.781 182.35 503.929 182.28 504.083 182.28H551.914C552.067 182.28 552.215 182.35 552.324 182.474C552.432 182.598 552.493 182.766 552.493 182.941C552.493 183.117 552.432 183.285 552.324 183.409C552.215 183.533 552.067 183.603 551.914 183.603Z" fill="#292A2E"/>
<path d="M462.199 207.448H375.535C375.381 207.448 375.234 207.379 375.125 207.255C375.016 207.131 374.955 206.962 374.955 206.787C374.955 206.612 375.016 206.444 375.125 206.32C375.234 206.196 375.381 206.126 375.535 206.126H462.199C462.353 206.126 462.501 206.196 462.609 206.32C462.718 206.444 462.779 206.612 462.779 206.787C462.779 206.962 462.718 207.131 462.609 207.255C462.501 207.379 462.353 207.448 462.199 207.448Z" fill="#292A2E"/>
<path d="M501.714 207.448H474.749C474.595 207.448 474.448 207.379 474.339 207.255C474.23 207.131 474.169 206.962 474.169 206.787C474.169 206.612 474.23 206.444 474.339 206.32C474.448 206.196 474.595 206.126 474.749 206.126H501.714C501.868 206.126 502.016 206.196 502.124 206.32C502.233 206.444 502.294 206.612 502.294 206.787C502.294 206.962 502.233 207.131 502.124 207.255C502.016 207.379 501.868 207.448 501.714 207.448Z" fill="#0CBC8B"/>
<path d="M551.813 207.448H513.255C513.102 207.448 512.954 207.379 512.845 207.255C512.737 207.131 512.676 206.962 512.676 206.787C512.676 206.612 512.737 206.444 512.845 206.32C512.954 206.196 513.102 206.126 513.255 206.126H551.813C551.966 206.126 552.114 206.196 552.223 206.32C552.331 206.444 552.392 206.612 552.392 206.787C552.392 206.962 552.331 207.131 552.223 207.255C552.114 207.379 551.966 207.448 551.813 207.448Z" fill="#292A2E"/>
<path d="M388.589 219.377H375.535C375.381 219.377 375.234 219.307 375.125 219.183C375.016 219.059 374.955 218.891 374.955 218.716C374.955 218.54 375.016 218.372 375.125 218.248C375.234 218.124 375.381 218.055 375.535 218.055H388.589C388.743 218.055 388.89 218.124 388.999 218.248C389.108 218.372 389.169 218.54 389.169 218.716C389.169 218.891 389.108 219.059 388.999 219.183C388.89 219.307 388.743 219.377 388.589 219.377Z" fill="#367CFF"/>
<path d="M490.125 219.377H401.139C400.985 219.377 400.838 219.307 400.729 219.183C400.62 219.059 400.559 218.891 400.559 218.716C400.559 218.54 400.62 218.372 400.729 218.248C400.838 218.124 400.985 218.055 401.139 218.055H490.125C490.278 218.055 490.426 218.124 490.535 218.248C490.643 218.372 490.704 218.54 490.704 218.716C490.704 218.891 490.643 219.059 490.535 219.183C490.426 219.307 490.278 219.377 490.125 219.377Z" fill="#0CBC8B"/>
<path d="M459.88 267.076H373.217C373.063 267.076 372.916 267.007 372.807 266.883C372.698 266.759 372.637 266.591 372.637 266.415C372.637 266.24 372.698 266.072 372.807 265.948C372.916 265.824 373.063 265.754 373.217 265.754H459.88C460.034 265.754 460.182 265.824 460.29 265.948C460.399 266.072 460.46 266.24 460.46 266.415C460.46 266.591 460.399 266.759 460.29 266.883C460.182 267.007 460.034 267.076 459.88 267.076Z" fill="#292A2E"/>
<path d="M522.581 267.076H472.429C472.275 267.076 472.128 267.007 472.019 266.883C471.911 266.759 471.849 266.591 471.849 266.415C471.849 266.24 471.911 266.072 472.019 265.948C472.128 265.824 472.275 265.754 472.429 265.754H522.581C522.735 265.754 522.882 265.824 522.991 265.948C523.099 266.072 523.161 266.24 523.161 266.415C523.161 266.591 523.099 266.759 522.991 266.883C522.882 267.007 522.735 267.076 522.581 267.076Z" fill="#367CFF"/>
<path d="M409.46 255.151H373.217C373.063 255.151 372.916 255.082 372.807 254.958C372.698 254.834 372.637 254.665 372.637 254.49C372.637 254.315 372.698 254.147 372.807 254.023C372.916 253.899 373.063 253.829 373.217 253.829H409.46C409.613 253.829 409.761 253.899 409.87 254.023C409.978 254.147 410.039 254.315 410.039 254.49C410.039 254.665 409.978 254.834 409.87 254.958C409.761 255.082 409.613 255.151 409.46 255.151Z" fill="#0CBC8B"/>
<path d="M487.803 255.151H422.004C421.85 255.151 421.703 255.082 421.594 254.958C421.485 254.834 421.424 254.665 421.424 254.49C421.424 254.315 421.485 254.147 421.594 254.023C421.703 253.899 421.85 253.829 422.004 253.829H487.803C487.957 253.829 488.105 253.899 488.213 254.023C488.322 254.147 488.383 254.315 488.383 254.49C488.383 254.665 488.322 254.834 488.213 254.958C488.105 255.082 487.957 255.151 487.803 255.151Z" fill="#367CFF"/>
<path d="M549.595 255.151H501.764C501.611 255.151 501.463 255.082 501.355 254.958C501.246 254.834 501.185 254.665 501.185 254.49C501.185 254.315 501.246 254.147 501.355 254.023C501.463 253.899 501.611 253.829 501.764 253.829H549.595C549.749 253.829 549.897 253.899 550.005 254.023C550.114 254.147 550.175 254.315 550.175 254.49C550.175 254.665 550.114 254.834 550.005 254.958C549.897 255.082 549.749 255.151 549.595 255.151Z" fill="#292A2E"/>
<path d="M494.658 290.926H373.217C373.063 290.926 372.916 290.856 372.807 290.732C372.698 290.608 372.637 290.44 372.637 290.264C372.637 290.089 372.698 289.921 372.807 289.797C372.916 289.673 373.063 289.603 373.217 289.603H494.658C494.812 289.603 494.959 289.673 495.068 289.797C495.177 289.921 495.238 290.089 495.238 290.264C495.238 290.44 495.177 290.608 495.068 290.732C494.959 290.856 494.812 290.926 494.658 290.926Z" fill="#367CFF"/>
<path d="M530.405 290.926H507.208C507.055 290.926 506.907 290.856 506.798 290.732C506.69 290.608 506.629 290.44 506.629 290.265C506.629 290.089 506.69 289.921 506.798 289.797C506.907 289.673 507.055 289.603 507.208 289.603H530.405C530.559 289.603 530.706 289.673 530.815 289.797C530.923 289.921 530.985 290.089 530.985 290.265C530.985 290.44 530.923 290.608 530.815 290.732C530.706 290.856 530.559 290.926 530.405 290.926Z" fill="#292A2E"/>
<path d="M386.27 279.001H373.217C373.139 279.004 373.061 278.989 372.988 278.957C372.916 278.926 372.849 278.878 372.793 278.816C372.737 278.754 372.692 278.68 372.662 278.598C372.631 278.517 372.616 278.429 372.616 278.34C372.616 278.251 372.631 278.163 372.662 278.081C372.692 277.999 372.737 277.925 372.793 277.864C372.849 277.802 372.916 277.754 372.988 277.722C373.061 277.691 373.139 277.676 373.217 277.679H386.27C386.348 277.676 386.426 277.691 386.498 277.722C386.571 277.754 386.638 277.802 386.694 277.864C386.75 277.925 386.795 277.999 386.825 278.081C386.855 278.163 386.871 278.251 386.871 278.34C386.871 278.429 386.855 278.517 386.825 278.598C386.795 278.68 386.75 278.754 386.694 278.816C386.638 278.878 386.571 278.926 386.498 278.957C386.426 278.989 386.348 279.004 386.27 279.001Z" fill="#367CFF"/>
<path d="M487.803 279.001H398.819C398.741 279.004 398.663 278.989 398.591 278.957C398.518 278.926 398.451 278.878 398.395 278.816C398.339 278.754 398.295 278.68 398.264 278.598C398.234 278.517 398.218 278.429 398.218 278.34C398.218 278.251 398.234 278.163 398.264 278.081C398.295 277.999 398.339 277.925 398.395 277.864C398.451 277.802 398.518 277.754 398.591 277.722C398.663 277.691 398.741 277.676 398.819 277.679H487.803C487.881 277.676 487.959 277.691 488.032 277.722C488.104 277.754 488.171 277.802 488.227 277.864C488.283 277.925 488.328 277.999 488.358 278.081C488.389 278.163 488.404 278.251 488.404 278.34C488.404 278.429 488.389 278.517 488.358 278.598C488.328 278.68 488.283 278.754 488.227 278.816C488.171 278.878 488.104 278.926 488.032 278.957C487.959 278.989 487.881 279.004 487.803 279.001Z" fill="#292A2E"/>
<path d="M549.595 279.001H501.764C501.687 279.004 501.609 278.989 501.536 278.957C501.463 278.926 501.397 278.878 501.341 278.816C501.285 278.754 501.24 278.68 501.21 278.598C501.179 278.517 501.163 278.429 501.163 278.34C501.163 278.251 501.179 278.163 501.21 278.081C501.24 277.999 501.285 277.925 501.341 277.864C501.397 277.802 501.463 277.754 501.536 277.722C501.609 277.691 501.687 277.676 501.764 277.679H549.595C549.673 277.676 549.751 277.691 549.824 277.722C549.896 277.754 549.963 277.802 550.019 277.864C550.075 277.925 550.12 277.999 550.15 278.081C550.181 278.163 550.196 278.251 550.196 278.34C550.196 278.429 550.181 278.517 550.15 278.598C550.12 278.68 550.075 278.754 550.019 278.816C549.963 278.878 549.896 278.926 549.824 278.957C549.751 278.989 549.673 279.004 549.595 279.001Z" fill="#0CBC8B"/>
<path d="M459.88 302.851H373.217C373.063 302.851 372.916 302.781 372.807 302.657C372.698 302.533 372.637 302.365 372.637 302.19C372.637 302.014 372.698 301.846 372.807 301.722C372.916 301.598 373.063 301.528 373.217 301.528H459.88C460.034 301.528 460.182 301.598 460.29 301.722C460.399 301.846 460.46 302.014 460.46 302.19C460.46 302.365 460.399 302.533 460.29 302.657C460.182 302.781 460.034 302.851 459.88 302.851Z" fill="#0CBC8B"/>
<path d="M499.396 302.851H472.431C472.277 302.851 472.13 302.781 472.021 302.657C471.912 302.533 471.851 302.365 471.851 302.19C471.851 302.014 471.912 301.846 472.021 301.722C472.13 301.598 472.277 301.528 472.431 301.528H499.396C499.55 301.528 499.697 301.598 499.806 301.722C499.915 301.846 499.976 302.014 499.976 302.19C499.976 302.365 499.915 302.533 499.806 302.657C499.697 302.781 499.55 302.851 499.396 302.851Z" fill="#292A2E"/>
<path d="M549.495 302.851H510.936C510.783 302.851 510.635 302.781 510.527 302.657C510.418 302.533 510.357 302.365 510.357 302.19C510.357 302.014 510.418 301.846 510.527 301.722C510.635 301.598 510.783 301.528 510.936 301.528H549.494C549.647 301.528 549.795 301.598 549.904 301.722C550.012 301.846 550.073 302.014 550.073 302.19C550.073 302.365 550.012 302.533 549.904 302.657C549.795 302.781 549.647 302.851 549.494 302.851H549.495Z" fill="#367CFF"/>
<path d="M333.622 309.364C333.546 309.364 333.471 309.347 333.4 309.314C333.33 309.281 333.266 309.232 333.212 309.171C333.158 309.11 333.116 309.037 333.086 308.957C333.057 308.877 333.042 308.791 333.042 308.704V127.013C333.042 126.837 333.103 126.669 333.212 126.545C333.321 126.421 333.468 126.351 333.622 126.351C333.776 126.351 333.923 126.421 334.032 126.545C334.141 126.669 334.202 126.837 334.202 127.013V308.704C334.202 308.791 334.187 308.877 334.158 308.957C334.128 309.037 334.086 309.11 334.032 309.171C333.978 309.232 333.914 309.281 333.844 309.314C333.773 309.347 333.698 309.364 333.622 309.364Z" fill="#292A2E"/>
<path d="M307.111 135.269H282.007C281.853 135.269 281.706 135.199 281.597 135.075C281.488 134.951 281.427 134.783 281.427 134.607C281.427 134.432 281.488 134.264 281.597 134.14C281.706 134.016 281.853 133.946 282.007 133.946H307.108C307.261 133.946 307.409 134.016 307.518 134.14C307.626 134.264 307.687 134.432 307.687 134.607C307.687 134.783 307.626 134.951 307.518 135.075C307.409 135.199 307.261 135.269 307.108 135.269H307.111Z" fill="#292A2E"/>
<path d="M299.55 148.306H282.007C281.929 148.31 281.852 148.295 281.779 148.263C281.706 148.231 281.64 148.183 281.584 148.122C281.528 148.06 281.483 147.986 281.452 147.904C281.422 147.822 281.406 147.735 281.406 147.646C281.406 147.557 281.422 147.469 281.452 147.387C281.483 147.305 281.528 147.231 281.584 147.17C281.64 147.108 281.706 147.06 281.779 147.028C281.852 146.996 281.929 146.982 282.007 146.985H299.547C299.697 146.991 299.839 147.064 299.943 147.187C300.047 147.31 300.106 147.474 300.106 147.646C300.106 147.817 300.047 147.981 299.943 148.104C299.839 148.228 299.697 148.3 299.547 148.306H299.55Z" fill="#292A2E"/>
<path d="M314.973 161.345H282.007C281.853 161.345 281.706 161.275 281.597 161.151C281.488 161.027 281.427 160.859 281.427 160.684C281.427 160.508 281.488 160.34 281.597 160.216C281.706 160.092 281.853 160.023 282.007 160.023H314.97C315.124 160.023 315.271 160.092 315.38 160.216C315.489 160.34 315.55 160.508 315.55 160.684C315.55 160.859 315.489 161.027 315.38 161.151C315.271 161.275 315.124 161.345 314.97 161.345H314.973Z" fill="#292A2E"/>
<path d="M321.122 174.383H293.603C293.525 174.386 293.448 174.371 293.375 174.34C293.302 174.308 293.236 174.26 293.18 174.198C293.123 174.136 293.079 174.062 293.048 173.981C293.018 173.899 293.002 173.811 293.002 173.722C293.002 173.633 293.018 173.545 293.048 173.463C293.079 173.382 293.123 173.308 293.18 173.246C293.236 173.184 293.302 173.136 293.375 173.104C293.448 173.073 293.525 173.058 293.603 173.061H321.122C321.2 173.058 321.278 173.073 321.351 173.104C321.424 173.136 321.49 173.184 321.546 173.246C321.602 173.308 321.647 173.382 321.677 173.463C321.708 173.545 321.724 173.633 321.724 173.722C321.724 173.811 321.708 173.899 321.677 173.981C321.647 174.062 321.602 174.136 321.546 174.198C321.49 174.26 321.424 174.308 321.351 174.34C321.278 174.371 321.2 174.386 321.122 174.383Z" fill="#292A2E"/>
<path d="M307.816 187.421H293.603C293.449 187.421 293.302 187.352 293.193 187.228C293.085 187.104 293.023 186.936 293.023 186.76C293.023 186.585 293.085 186.417 293.193 186.293C293.302 186.169 293.449 186.099 293.603 186.099H307.816C307.97 186.099 308.117 186.169 308.226 186.293C308.335 186.417 308.396 186.585 308.396 186.76C308.396 186.936 308.335 187.104 308.226 187.228C308.117 187.352 307.97 187.421 307.816 187.421Z" fill="#292A2E"/>
<path d="M318.702 200.46H293.603C293.449 200.46 293.302 200.39 293.193 200.266C293.085 200.142 293.023 199.974 293.023 199.799C293.023 199.623 293.085 199.455 293.193 199.331C293.302 199.207 293.449 199.138 293.603 199.138H318.702C318.855 199.138 319.003 199.207 319.112 199.331C319.22 199.455 319.281 199.623 319.281 199.799C319.281 199.974 319.22 200.142 319.112 200.266C319.003 200.39 318.855 200.46 318.702 200.46Z" fill="#292A2E"/>
<path d="M301.364 213.498H282.007C281.853 213.498 281.706 213.428 281.597 213.304C281.488 213.18 281.427 213.012 281.427 212.837C281.427 212.661 281.488 212.493 281.597 212.369C281.706 212.245 281.853 212.175 282.007 212.175H301.361C301.515 212.175 301.662 212.245 301.771 212.369C301.88 212.493 301.941 212.661 301.941 212.837C301.941 213.012 301.88 213.18 301.771 213.304C301.662 213.428 301.515 213.498 301.361 213.498H301.364Z" fill="#292A2E"/>
<path d="M294.711 226.536H282.007C281.853 226.536 281.706 226.467 281.597 226.343C281.488 226.219 281.427 226.051 281.427 225.875C281.427 225.7 281.488 225.532 281.597 225.408C281.706 225.284 281.853 225.214 282.007 225.214H294.708C294.862 225.214 295.009 225.284 295.118 225.408C295.226 225.532 295.288 225.7 295.288 225.875C295.288 226.051 295.226 226.219 295.118 226.343C295.009 226.467 294.862 226.536 294.708 226.536H294.711Z" fill="#292A2E"/>
<path d="M345.625 132.472V132.711L352.871 135.777C352.974 135.825 353.063 135.908 353.124 136.014C353.186 136.12 353.219 136.245 353.218 136.372V136.597C353.219 136.697 353.199 136.795 353.158 136.883C353.117 136.971 353.057 137.045 352.983 137.1C352.91 137.159 352.825 137.195 352.736 137.207C352.646 137.219 352.556 137.204 352.473 137.166L344.289 133.516C344.187 133.47 344.099 133.39 344.037 133.286C343.975 133.182 343.942 133.06 343.941 132.934V132.261C343.94 132.135 343.973 132.012 344.035 131.908C344.098 131.804 344.186 131.724 344.289 131.679L352.473 128.021C352.54 127.995 352.61 127.981 352.681 127.981C352.789 127.983 352.893 128.02 352.983 128.087C353.057 128.144 353.117 128.221 353.158 128.311C353.199 128.401 353.22 128.501 353.218 128.603V128.826C353.22 128.953 353.188 129.077 353.126 129.181C353.064 129.285 352.974 129.365 352.871 129.408L345.625 132.472Z" fill="#367CFF"/>
<path d="M359.988 125.32L355.653 140.457C355.618 140.584 355.548 140.694 355.454 140.773C355.361 140.851 355.247 140.893 355.131 140.893C355.047 140.895 354.963 140.873 354.889 140.829C354.814 140.785 354.749 140.721 354.701 140.642C354.65 140.564 354.614 140.473 354.598 140.377C354.582 140.28 354.586 140.181 354.609 140.087L358.944 124.963C358.982 124.835 359.053 124.723 359.149 124.643C359.244 124.563 359.359 124.519 359.478 124.517C359.562 124.517 359.644 124.54 359.719 124.583C359.794 124.627 359.858 124.691 359.907 124.768C359.958 124.846 359.992 124.937 360.006 125.033C360.021 125.129 360.014 125.227 359.988 125.32Z" fill="#367CFF"/>
<path d="M370.634 132.261V132.934C370.636 133.059 370.605 133.181 370.545 133.284C370.485 133.388 370.399 133.469 370.298 133.516L362.102 137.166C362.021 137.204 361.933 137.218 361.845 137.206C361.758 137.195 361.675 137.158 361.604 137.1C361.53 137.046 361.469 136.971 361.426 136.884C361.384 136.796 361.361 136.697 361.36 136.597V136.372C361.359 136.243 361.393 136.116 361.457 136.009C361.522 135.903 361.614 135.822 361.72 135.777L368.965 132.711V132.472L361.72 129.405C361.614 129.364 361.521 129.286 361.456 129.181C361.391 129.077 361.358 128.951 361.36 128.823V128.599C361.361 128.497 361.383 128.396 361.426 128.307C361.468 128.217 361.529 128.14 361.604 128.083C361.693 128.017 361.798 127.98 361.905 127.977C361.972 127.976 362.039 127.99 362.102 128.017L370.298 131.675C370.401 131.722 370.488 131.803 370.548 131.907C370.608 132.012 370.638 132.136 370.634 132.261Z" fill="#367CFF"/>
<path d="M72.9065 554.335C68.1799 554.334 63.5234 553.031 59.3334 550.537C55.1433 548.042 51.5438 544.43 48.8411 540.008C46.1384 535.586 44.4125 530.484 43.8103 525.138C43.2081 519.792 43.7475 514.358 45.3826 509.301C47.042 504.166 89.6075 378.858 97.0207 357.081L148.244 391.076C144.079 403.321 128.983 449.738 116.856 487.129L137.004 484.631L143.341 545.805L76.0807 554.14C75.0265 554.27 73.9669 554.335 72.9065 554.335Z" fill="#367CFF"/>
<path d="M240.453 331.027C240.273 331 235.344 352.155 196.873 348.863C170.241 346.588 163.747 325.914 163.136 325.914C166.008 325.218 170.671 324.495 171.946 323.719C176.14 321.149 179.194 318.021 180.732 311.308C181.935 306.058 182.548 285.846 182.548 275.706L223.53 286.208C222.958 297.647 218.96 324.165 232.973 328.858C235.305 329.63 237.816 330.344 240.453 331.027Z" fill="#E98862"/>
<path d="M222.111 308.692C205.955 310.147 185.201 302.367 181.259 277.785L177.702 255.605C173.76 231.024 181.886 208.735 202.181 204.502C222.476 200.269 240.842 217.032 244.783 241.614L246.358 251.434C247.871 260.865 250.937 306.099 222.111 308.692Z" fill="#E98862"/>
<path d="M145.636 329.313C131.118 330.541 116.314 332.334 105.631 343.613C92.7652 357.197 90.4337 373.899 98.6418 419.863C105.704 459.413 102.902 476.695 107.627 549.675C107.766 551.824 108.064 556.271 108.064 556.271L263.37 555.978C263.37 555.978 277.922 459.152 285.957 414.493C292.067 380.542 308.115 339.326 240.45 331.02C240.274 330.997 186.007 325.897 145.636 329.313Z" fill="#367CFF"/>
<path d="M108.067 556.718C107.966 556.718 107.869 556.674 107.796 556.594C107.723 556.514 107.68 556.404 107.676 556.289L102.809 412.211C102.807 412.152 102.815 412.094 102.833 412.039C102.851 411.984 102.878 411.933 102.913 411.89C102.948 411.847 102.99 411.813 103.037 411.788C103.083 411.764 103.134 411.75 103.185 411.748C103.237 411.743 103.289 411.751 103.338 411.77C103.388 411.79 103.433 411.821 103.471 411.861C103.509 411.901 103.539 411.95 103.56 412.005C103.581 412.059 103.591 412.118 103.591 412.177L108.459 556.255C108.462 556.373 108.425 556.488 108.354 556.575C108.284 556.662 108.186 556.713 108.082 556.717L108.067 556.718Z" fill="#0C0C0C"/>
<path d="M357.274 380.755L368.185 352.842C368.425 352.229 368.774 351.68 369.21 351.229C369.646 350.778 370.16 350.435 370.719 350.223C371.277 350.011 371.869 349.934 372.455 349.997C373.041 350.059 373.609 350.261 374.124 350.588C375.057 351.225 375.75 352.235 376.067 353.423C376.385 354.61 376.304 355.889 375.841 357.012L373.502 362.997L388.434 348.027C390.069 346.332 393.027 345.439 394.576 347.656C395.221 348.464 395.607 349.499 395.67 350.589C395.733 351.68 395.47 352.763 394.924 353.662C394.942 353.675 394.959 353.69 394.974 353.708C394.983 353.723 394.991 353.739 394.999 353.756L397.52 351.139C397.987 350.655 398.543 350.295 399.147 350.087C399.752 349.878 400.389 349.826 401.013 349.935C401.638 350.043 402.233 350.308 402.756 350.712C403.278 351.116 403.716 351.648 404.035 352.269C404.522 353.258 404.696 354.408 404.528 355.526C404.359 356.644 403.86 357.662 403.112 358.41L402.039 359.525C402.053 359.575 402.059 359.627 402.057 359.68C402.935 359.119 403.959 358.933 404.946 359.155C405.933 359.376 406.819 359.991 407.446 360.889C408.106 361.895 408.409 363.147 408.295 364.396C408.181 365.646 407.658 366.8 406.83 367.629L404.166 370.395C404.228 370.386 404.291 370.394 404.349 370.419C404.408 370.443 404.46 370.483 404.502 370.535C404.55 370.6 404.58 370.679 404.589 370.763C405.492 370.511 406.443 370.605 407.295 371.029C408.147 371.454 408.854 372.186 409.306 373.113C409.763 374.098 409.915 375.23 409.738 376.326C409.561 377.422 409.064 378.418 408.328 379.152L385.846 402.494C382.701 405.76 378.772 407.88 374.563 408.582C370.355 409.285 366.058 408.538 362.224 406.437C358.918 404.626 356.361 401.417 355.098 397.49C353.834 393.564 353.962 389.23 355.456 385.41L357.274 380.755Z" fill="#E98862"/>
<g opacity="0.2">
<path d="M380.204 368.56C380.274 368.646 380.37 368.698 380.472 368.704C380.575 368.71 380.675 368.669 380.752 368.592L394.938 354.334C395.016 354.256 395.063 354.146 395.069 354.027C395.076 353.909 395.041 353.793 394.972 353.704C394.904 353.615 394.807 353.561 394.703 353.554C394.6 353.546 394.498 353.586 394.42 353.664L380.235 367.922C380.196 367.96 380.165 368.007 380.142 368.06C380.119 368.113 380.106 368.17 380.103 368.228C380.099 368.287 380.106 368.346 380.123 368.401C380.14 368.456 380.166 368.508 380.2 368.552L380.204 368.56Z" fill="#0C0C0C"/>
</g>
<g opacity="0.2">
<path d="M385.546 375.867C385.615 375.953 385.711 376.005 385.814 376.011C385.916 376.017 386.017 375.977 386.093 375.899L401.924 359.989C401.963 359.95 401.994 359.903 402.017 359.85C402.04 359.797 402.053 359.74 402.056 359.682C402.059 359.623 402.052 359.565 402.036 359.509C402.019 359.454 401.993 359.403 401.959 359.359C401.888 359.273 401.792 359.221 401.69 359.214C401.587 359.207 401.486 359.244 401.406 359.319L385.575 375.23C385.537 375.269 385.505 375.316 385.483 375.369C385.46 375.421 385.447 375.479 385.444 375.537C385.441 375.596 385.448 375.654 385.464 375.71C385.481 375.765 385.507 375.816 385.541 375.86L385.546 375.867Z" fill="#0C0C0C"/>
</g>
<g opacity="0.2">
<path d="M391.291 383.821C391.36 383.907 391.457 383.959 391.559 383.965C391.661 383.971 391.762 383.931 391.839 383.853L404.466 371.161C404.544 371.082 404.592 370.972 404.598 370.854C404.605 370.736 404.57 370.619 404.501 370.531C404.432 370.442 404.335 370.388 404.232 370.381C404.128 370.373 404.026 370.413 403.949 370.491L391.321 383.184C391.282 383.223 391.251 383.27 391.228 383.322C391.205 383.375 391.192 383.432 391.189 383.491C391.186 383.549 391.193 383.608 391.209 383.663C391.226 383.719 391.252 383.77 391.286 383.814L391.291 383.821Z" fill="#0C0C0C"/>
</g>
<path d="M237.088 283.498C234.306 267.556 233.03 256.919 233.176 245.698C237.095 237.858 236.065 228.862 235.174 224.973C236.297 225.703 237.472 226.323 238.686 226.827C239.251 227.051 239.86 227.087 240.442 226.93C241.023 226.772 241.554 226.429 241.97 225.94C242.387 225.451 242.672 224.837 242.793 224.169C242.914 223.501 242.866 222.808 242.653 222.171C239.62 213.216 231.825 195.815 215.734 189.984C211.683 188.186 201.338 185.915 187.609 188.063C175.929 189.89 149.486 202.527 145.373 239.49V239.511C145.237 240.737 140.125 272.118 134.614 288.459C127.206 310.425 116.804 317.251 117.067 342.595C117.407 375.196 169.957 379.535 201.66 377.097C233.363 374.659 251.053 362.772 251.283 339.277C251.532 312.95 242.653 315.395 237.088 283.498Z" fill="#0A0A0A"/>
<path d="M237.098 272.194C230.93 273.48 224.723 266.998 223.596 259.964C222.469 252.93 225.279 245.698 233.176 245.698L237.098 272.194Z" fill="#E98862"/>
<path d="M303.438 549.274C297.234 549.273 291.19 547.03 286.173 542.868C281.157 538.706 277.425 532.838 275.514 526.107L234.751 382.332L290.584 361.744L312.022 437.367L349.07 370.175L398.749 405.798L328.269 533.624C325.628 538.414 321.965 542.362 317.622 545.099C313.28 547.836 308.4 549.272 303.438 549.274Z" fill="#367CFF"/>
<path d="M270.544 509.574C270.52 509.574 270.496 509.572 270.473 509.567C270.371 509.545 270.28 509.478 270.222 509.38C270.163 509.283 270.141 509.163 270.16 509.046L284.017 423.263C284.026 423.206 284.045 423.151 284.073 423.102C284.101 423.052 284.137 423.01 284.179 422.977C284.222 422.943 284.269 422.92 284.32 422.908C284.37 422.895 284.422 422.895 284.472 422.905C284.523 422.916 284.571 422.938 284.614 422.969C284.657 423.001 284.695 423.043 284.724 423.091C284.753 423.139 284.774 423.193 284.784 423.251C284.795 423.308 284.796 423.367 284.786 423.425L270.929 509.211C270.912 509.313 270.864 509.405 270.794 509.471C270.724 509.538 270.635 509.574 270.544 509.574Z" fill="#0C0C0C"/>
<path d="M317.009 457.613C316.922 457.613 316.838 457.58 316.769 457.52C316.701 457.459 316.652 457.375 316.63 457.279L312.014 437.002C311.988 436.887 312.003 436.765 312.055 436.663C312.108 436.561 312.194 436.487 312.294 436.458C312.395 436.428 312.501 436.445 312.591 436.505C312.68 436.565 312.745 436.663 312.771 436.778L317.387 457.055C317.402 457.121 317.404 457.19 317.392 457.257C317.38 457.324 317.354 457.386 317.318 457.44C317.281 457.494 317.234 457.538 317.18 457.568C317.127 457.597 317.068 457.613 317.008 457.613H317.009Z" fill="#0C0C0C"/>
<path d="M631.051 454.212H478.088C477.13 454.212 476.184 453.981 475.311 453.533C474.438 453.086 473.658 452.432 473.023 451.615C472.388 450.799 471.911 449.838 471.626 448.796C471.34 447.755 471.251 446.656 471.364 445.572L475.457 406.623C475.654 404.747 476.447 403.019 477.686 401.766C478.925 400.512 480.524 399.82 482.18 399.82H631.051C632.846 399.82 634.568 400.634 635.838 402.082C637.108 403.53 637.821 405.494 637.822 407.542V446.492C637.821 448.539 637.108 450.503 635.838 451.951C634.568 453.399 632.846 454.212 631.051 454.212Z" fill="#292A2E"/>
<path d="M519.465 454.578L526.006 425.95C526.15 425.321 526.178 424.664 526.087 424.022C525.996 423.38 525.789 422.767 525.479 422.221C525.169 421.676 524.763 421.21 524.286 420.853C523.809 420.497 523.272 420.257 522.71 420.15C518.056 419.147 517.488 426.46 516.607 429.965L513.249 408.352C512.736 402.522 505.863 402.331 505.355 408.14C505.318 408.133 505.281 408.14 505.249 408.16C505.41 397.542 495.103 398.364 496.867 407.669C496.83 407.698 496.798 407.733 496.771 407.775C495.05 402.627 487.995 405.035 488.947 410.495L489.495 414.421C489.462 414.382 489.422 414.35 489.379 414.328C489.335 414.306 489.288 414.294 489.24 414.292C489.192 414.291 489.145 414.301 489.1 414.32C489.055 414.34 489.015 414.37 488.98 414.408C486.613 410.586 480.811 413.39 481.704 418.174L486.334 451.322C488.983 472.762 516.648 479.956 519.465 454.578Z" fill="#E98862"/>
<g opacity="0.2">
<path d="M508.589 429.548C507.572 429.44 505.397 409.268 504.99 408.637C504.973 408.525 504.996 408.408 505.053 408.315C505.111 408.221 505.199 408.157 505.298 408.137C505.397 408.118 505.499 408.143 505.581 408.209C505.663 408.275 505.719 408.376 505.737 408.488L508.902 429.047C508.911 429.103 508.91 429.161 508.899 429.217C508.888 429.273 508.867 429.326 508.838 429.373C508.809 429.419 508.772 429.459 508.729 429.489C508.686 429.519 508.639 429.539 508.589 429.548Z" fill="#0C0C0C"/>
</g>
<g opacity="0.2">
<path d="M500.674 431.394C500.575 431.41 500.475 431.382 500.395 431.316C500.315 431.249 500.26 431.149 500.244 431.037L496.705 408.093C496.688 407.98 496.711 407.864 496.768 407.77C496.826 407.677 496.914 407.613 497.013 407.593C498.051 407.485 500.577 430.405 500.991 430.888C501 430.945 500.999 431.003 500.988 431.06C500.977 431.117 500.956 431.17 500.926 431.217C500.897 431.264 500.859 431.304 500.816 431.335C500.772 431.365 500.724 431.385 500.674 431.394Z" fill="#0C0C0C"/>
</g>
<g opacity="0.2">
<path d="M492.114 433.449C492.016 433.465 491.916 433.437 491.835 433.37C491.755 433.304 491.701 433.204 491.685 433.092L488.862 414.79C488.848 414.679 488.873 414.566 488.93 414.475C488.988 414.384 489.075 414.322 489.171 414.303C489.268 414.284 489.368 414.308 489.449 414.371C489.531 414.434 489.588 414.531 489.608 414.641L492.431 432.942C492.44 432.999 492.439 433.057 492.428 433.114C492.417 433.171 492.396 433.224 492.367 433.272C492.337 433.319 492.3 433.359 492.256 433.389C492.213 433.42 492.165 433.44 492.114 433.449Z" fill="#0C0C0C"/>
</g>
<path d="M286.936 556.718H105.102L93.5461 455.464C93.3142 453.433 93.465 451.368 93.9884 449.408C94.5118 447.448 95.3957 445.638 96.5812 444.098C97.7667 442.559 99.2265 441.326 100.863 440.481C102.5 439.636 104.276 439.198 106.072 439.198H262.419C265.487 439.197 268.451 440.47 270.758 442.779C273.064 445.087 274.555 448.274 274.953 451.744L286.936 556.718Z" fill="white"/>
<path d="M275.899 451.61C275.467 447.878 273.863 444.453 271.383 441.968C268.904 439.484 265.719 438.11 262.419 438.101H106.072C104.355 438.103 102.653 438.475 101.057 439.198C100.382 439.501 99.7302 439.868 99.109 440.296C96.8311 441.844 95.0004 444.119 93.8423 446.84C92.6842 449.56 92.2495 452.608 92.5916 455.607L104.14 556.718H106.072L94.5007 455.331C94.286 453.454 94.425 451.546 94.9082 449.735C95.3915 447.923 96.2079 446.25 97.3031 444.827C98.3982 443.404 99.7468 442.264 101.259 441.483C102.771 440.701 104.412 440.297 106.072 440.296H262.419C265.251 440.304 267.985 441.483 270.114 443.614C272.243 445.745 273.623 448.684 273.998 451.886L285.969 556.718H287.909L275.899 451.61Z" fill="#292A2E"/>
<path d="M276.33 556.718H94.4928L82.9368 455.464C82.7045 453.433 82.855 451.368 83.3783 449.407C83.9015 447.447 84.7854 445.637 85.971 444.097C87.1566 442.558 88.6165 441.324 90.2534 440.48C91.8902 439.635 93.6663 439.198 95.463 439.198H251.807C254.875 439.199 257.837 440.472 260.142 442.78C262.447 445.089 263.937 448.275 264.333 451.744L276.33 556.718Z" fill="#292A2E"/>
<path d="M265.29 451.61C265.023 449.284 264.297 447.058 263.167 445.098C262.036 443.139 260.531 441.497 258.765 440.296C258.143 439.87 257.491 439.503 256.817 439.198C255.223 438.474 253.524 438.102 251.809 438.101H95.463C93.5292 438.1 91.6174 438.57 89.8556 439.479C88.0937 440.388 86.5222 441.715 85.2462 443.372C83.9701 445.029 83.0189 446.978 82.456 449.088C81.8932 451.198 81.7317 453.42 81.9823 455.607L93.5226 556.718H95.463L83.8913 455.331C83.6767 453.454 83.8157 451.546 84.2989 449.735C84.7822 447.923 85.5986 446.25 86.6937 444.827C87.7889 443.404 89.1375 442.264 90.6497 441.483C92.1619 440.701 93.8028 440.297 95.463 440.296H251.807C254.64 440.304 257.374 441.483 259.503 443.614C261.632 445.745 263.011 448.684 263.386 451.886L275.357 556.718H277.297L265.29 451.61Z" fill="#292A2E"/>
<path d="M584.976 335.446C585.155 335.419 587.147 373.091 625.521 369.807C652.088 367.537 661.56 335.393 662.169 335.393C659.305 334.699 654.481 333.689 653.209 332.915C649.026 330.352 643.067 327.684 641.719 318.42C640.942 313.08 642.26 285.763 641.854 280.359L601.857 290.739C602.427 302.15 606.415 328.602 592.437 333.283C590.115 334.06 587.607 334.774 584.976 335.446Z" fill="#E98862"/>
<path d="M602.982 308.536C619.087 309.954 639.761 302.16 643.654 277.652L647.166 255.538C651.058 231.03 642.926 208.831 622.692 204.652C602.457 200.472 584.178 217.216 580.286 241.724L578.73 251.514C578.248 254.886 577.968 258.291 577.892 261.707C577.631 270.732 577.266 284.459 581.178 294.542C584.878 304.065 592.697 307.631 602.982 308.536Z" fill="#E98862"/>
<path d="M639.098 203.396C632.706 201.122 626.074 199.836 619.382 199.57C618.733 196.657 617.288 194.395 615.163 193.446C611.625 191.869 607.303 194.409 604.427 199.301C602.829 196.506 600.662 193.988 597.791 192.966C589.87 190.153 589.477 203.13 589.477 203.13C589.477 203.13 576.917 188.995 576.524 207.023C576.05 228.834 579.563 235.231 582.127 236.846C587.191 240.035 590.962 239.496 592.966 244.187C599.034 258.395 593.087 298.414 600.109 303.424C610.866 311.098 632.901 311.366 640.058 310.782C642.81 310.557 645.386 306.919 646.545 304.063C650.288 294.844 658.636 273.944 660.959 265.301C665.247 249.352 664.924 213.012 639.098 203.396Z" fill="#0C0C0C"/>
<path d="M595.301 289.131C601.513 288.362 605.828 280.159 605.153 273.071C604.479 265.982 599.071 262.703 592.858 263.471L590.109 268.615L589.959 289.79L595.301 289.131Z" fill="#E98862"/>
<path d="M699.078 550.81L699.271 550.822C699.271 550.822 699.132 546.592 699.078 550.81Z" fill="#333333"/>
<path d="M529.809 418.801C531.022 435.052 536.922 536.435 538.088 556.451H698.806C699.714 538.398 703.791 459.462 707.233 424.156C710.519 390.468 716.968 373.602 712.241 363.642C704.518 347.366 683.413 337.959 669.024 335.738C660.236 334.382 658.425 333.409 654.843 333.409H592.964C587.079 333.409 549.502 339.874 541.8 346.333C520.482 364.211 527.235 384.364 529.809 418.801Z" fill="#367CFF"/>
<path d="M733.121 555.39C737.849 555.39 742.506 554.087 746.697 551.592C750.888 549.098 754.488 545.485 757.191 541.063C759.894 536.64 761.62 531.538 762.222 526.19C762.824 520.843 762.284 515.409 760.648 510.351C758.988 505.216 720.062 387.665 712.652 365.881L657.781 391.237C661.947 403.483 677.044 449.904 689.172 487.297L669.023 484.799L662.681 551.333L729.946 555.192C731.001 555.324 732.061 555.39 733.121 555.39Z" fill="#367CFF"/>
<path d="M701.806 424.838L697.857 556.435L698.925 556.477L702.874 424.88L701.806 424.838Z" fill="#0C0C0C"/>
<path d="M506.56 555.39C501.833 555.389 497.176 554.087 492.985 551.592C488.794 549.098 485.194 545.485 482.491 541.062C479.788 536.639 478.062 531.537 477.46 526.19C476.858 520.843 477.398 515.409 479.034 510.351C480.694 505.216 521.251 387.145 528.661 365.364L581.901 391.239C577.735 403.485 562.638 449.906 550.51 487.3L570.659 484.802L577.001 551.335L509.735 555.195C508.681 555.326 507.621 555.39 506.56 555.39Z" fill="#367CFF"/>
<path d="M550.384 479.499C550.292 479.499 550.201 479.474 550.118 479.427C550.036 479.379 549.965 479.31 549.911 479.225C549.856 479.14 549.82 479.042 549.805 478.938C549.79 478.834 549.797 478.728 549.825 478.627L564.071 427.48C564.092 427.394 564.129 427.314 564.178 427.244C564.227 427.175 564.288 427.117 564.357 427.075C564.427 427.032 564.502 427.006 564.581 426.998C564.659 426.99 564.738 427 564.812 427.027C564.887 427.054 564.956 427.098 565.016 427.156C565.076 427.214 565.124 427.285 565.16 427.365C565.195 427.445 565.215 427.533 565.22 427.622C565.225 427.711 565.214 427.801 565.189 427.885L550.943 479.027C550.907 479.164 550.832 479.283 550.732 479.368C550.631 479.453 550.509 479.499 550.384 479.499Z" fill="#0C0C0C"/>
<path d="M732.934 455.464L721.371 556.718H539.541L551.528 451.744C551.925 448.275 553.414 445.09 555.719 442.781C558.024 440.473 560.987 439.199 564.054 439.198H720.4C722.198 439.197 723.974 439.633 725.612 440.478C727.249 441.322 728.71 442.555 729.897 444.095C731.083 445.635 731.967 447.445 732.491 449.406C733.015 451.366 733.166 453.432 732.934 455.464Z" fill="white"/>
<path d="M730.618 443.374C729.683 442.161 728.588 441.122 727.372 440.296C726.747 439.869 726.093 439.501 725.416 439.198C723.819 438.475 722.118 438.103 720.4 438.101H564.054C560.754 438.111 557.569 439.486 555.09 441.97C552.612 444.454 551.007 447.879 550.573 451.61L538.571 556.718H540.511L552.482 451.886C552.854 448.684 554.232 445.745 556.36 443.613C558.488 441.482 561.222 440.303 564.054 440.296H720.4C722.061 440.298 723.701 440.703 725.214 441.484C726.726 442.266 728.075 443.406 729.17 444.829C730.266 446.251 731.083 447.924 731.568 449.735C732.052 451.546 732.193 453.454 731.98 455.331L720.4 556.718H722.341L733.881 455.607C734.131 453.421 733.97 451.198 733.407 449.089C732.844 446.979 731.893 445.031 730.618 443.374Z" fill="#292A2E"/>
<path d="M743.543 455.464L731.98 556.718H550.15L562.137 451.744C562.424 449.234 563.286 446.854 564.636 444.844C565.986 442.834 567.777 441.265 569.828 440.296C571.36 439.567 573.004 439.194 574.663 439.198H731.017C732.813 439.199 734.589 439.636 736.225 440.481C737.862 441.327 739.321 442.56 740.507 444.099C741.692 445.639 742.576 447.449 743.1 449.408C743.623 451.368 743.774 453.433 743.543 455.464Z" fill="#292A2E"/>
<path d="M741.227 443.374C739.951 441.719 738.38 440.393 736.62 439.484C734.859 438.574 732.949 438.103 731.017 438.101H574.663C572.216 438.105 569.815 438.864 567.715 440.296C565.947 441.496 564.441 443.138 563.31 445.097C562.178 447.057 561.451 449.284 561.183 451.61L549.181 556.718H551.12L563.091 451.886C563.463 448.684 564.841 445.745 566.969 443.613C569.097 441.482 571.83 440.303 574.663 440.296H731.017C732.677 440.297 734.318 440.701 735.83 441.482C737.342 442.264 738.691 443.404 739.786 444.827C740.881 446.25 741.698 447.923 742.181 449.734C742.664 451.546 742.803 453.454 742.588 455.331L731.017 556.718H732.949L744.498 455.607C744.746 453.42 744.582 451.198 744.018 449.089C743.454 446.98 742.502 445.031 741.227 443.374Z" fill="#292A2E"/>
<path d="M44.1198 557.345H758.775C758.921 557.345 759.06 557.279 759.163 557.162C759.265 557.045 759.323 556.886 759.323 556.72C759.323 556.554 759.265 556.396 759.163 556.278C759.06 556.161 758.921 556.095 758.775 556.095H44.1198C43.9745 556.095 43.8352 556.161 43.7325 556.278C43.6298 556.396 43.5721 556.554 43.5721 556.72C43.5721 556.886 43.6298 557.045 43.7325 557.162C43.8352 557.279 43.9745 557.345 44.1198 557.345Z" fill="#292A2E"/>
<g opacity="0.65">
<path d="M44.1198 557.345H758.775C758.921 557.345 759.06 557.279 759.163 557.162C759.265 557.045 759.323 556.886 759.323 556.72C759.323 556.554 759.265 556.396 759.163 556.278C759.06 556.161 758.921 556.095 758.775 556.095H44.1198C43.9745 556.095 43.8352 556.161 43.7325 556.278C43.6298 556.396 43.5721 556.554 43.5721 556.72C43.5721 556.886 43.6298 557.045 43.7325 557.162C43.8352 557.279 43.9745 557.345 44.1198 557.345Z" fill="#292A2E"/>
</g>
<path d="M477.222 522.47L479.738 447.028L514.496 444.93L517.659 522.47H477.222Z" fill="#367CFF"/>
</svg>
